<?xml version="1.0" encoding="UTF-8" standalone="no"?>
<svg
   xmlns:dc="http://purl.org/dc/elements/1.1/"
   xmlns:cc="http://creativecommons.org/ns#"
   xmlns:rdf="http://www.w3.org/1999/02/22-rdf-syntax-ns#"
   xmlns:svg="http://www.w3.org/2000/svg"
   xmlns="http://www.w3.org/2000/svg"
   xml:space="preserve"
   style="enable-background:new 0 0 418.795 418.795;"
   viewBox="0 0 418.795 418.795"
   y="0px"
   x="0px"
   id="Capa_1"
   version="1.1"><metadata
   id="metadata945"><rdf:RDF><cc:Work
       rdf:about=""><dc:format>image/svg+xml</dc:format><dc:type
         rdf:resource="http://purl.org/dc/dcmitype/StillImage" /><dc:title></dc:title></cc:Work></rdf:RDF></metadata><defs
   id="defs943" />
<g
   id="g908">
	<g
   id="g906">
		
			<rect
   id="rect900"
   height="199.738"
   width="168.891"
   style="fill:none;"
   transform="matrix(0.7071 0.7071 -0.7071 0.7071 209.2187 -128.311)"
   y="88.525"
   x="175.049" />
		<polygon
   id="polygon902"
   points="28.971,299.493 95.18,365.702 201.609,365.702 231.617,335.695 112.193,216.271   "
   style="fill:#73D0F4;" />
		<path
   id="path904"
   d="M 235.57508,365.83373 212.73846,389.14411 415.282,185.973 c 4.686,-4.688 4.686,-12.285 0,-16.971 L 278.887,32.607 c -2.252,-2.25 -5.303,-3.514 -8.486,-3.514 -3.182,0 -6.234,1.264 -8.484,3.514 L 3.516,291.009 c -4.688,4.686 -4.688,12.283 0,16.971 l 78.209,78.207 c 2.25,2.252 5.303033,3.53051 8.484,3.516 l 122.52946,-0.55889 c 6.62693,-0.0302 -3.94027,-2.18167 3.42216,-15.14444 5.30045,-9.33232 19.58738,-7.21998 19.41446,-8.16594 z M 270.4,58.064 389.824,177.488 248.588,318.724 129.165,199.3 Z M 201.609,365.702 H 95.18 L 28.971,299.493 112.194,216.27 231.618,335.694 Z"
   style="fill:#999999" />
	</g>
</g>
<g
   id="g910">
</g>
<g
   id="g912">
</g>
<g
   id="g914">
</g>
<g
   id="g916">
</g>
<g
   id="g918">
</g>
<g
   id="g920">
</g>
<g
   id="g922">
</g>
<g
   id="g924">
</g>
<g
   id="g926">
</g>
<g
   id="g928">
</g>
<g
   id="g930">
</g>
<g
   id="g932">
</g>
<g
   id="g934">
</g>
<g
   id="g936">
</g>
<g
   id="g938">
</g>
<path
   id="path1067"
   d="m 214.328,386.68438 c -1.42922,-3.21812 -1.06729,-6.82115 1.1272,-11.2214 1.03485,-2.07501 1.5568,-2.83271 2.8265,-4.10319 1.18787,-1.18859 2.25492,-1.95119 3.77151,-2.69544 2.90097,-1.42361 6.05101,-2.10415 11.22849,-2.42584 0.89656,-0.0557 1.71393,-0.12443 1.8164,-0.15273 0.12074,-0.0333 0.004,0.14051 -0.33268,0.49405 -0.66808,0.70221 -13.33136,13.651 -16.15618,16.52043 -1.18523,1.20394 -2.57773,2.62817 -3.09446,3.16495 l -0.9395,0.97596 z"
   style="opacity:1;fill:#999999;fill-opacity:0.21176471;stroke-width:0.09314836" /><path
   id="path1069"
   d="m 214.28486,386.62022 c -0.32992,-0.72764 -0.6293,-1.76305 -0.7198,-2.48945 -0.14984,-1.20278 -0.0554,-3.12313 0.20184,-4.1044 0.0336,-0.12808 0.0782,-0.34971 0.0991,-0.49252 0.0209,-0.1428 0.0821,-0.3419 0.13588,-0.44245 0.0538,-0.10055 0.0703,-0.18281 0.0366,-0.18281 -0.0337,0 -0.009,-0.0629 0.0547,-0.13973 0.0638,-0.0768 0.0847,-0.13972 0.0466,-0.13972 -0.0382,0 -0.0172,-0.0629 0.0466,-0.13972 0.0638,-0.0768 0.0847,-0.13973 0.0466,-0.13973 -0.0382,0 -0.0172,-0.0629 0.0466,-0.13972 0.0638,-0.0768 0.0847,-0.13972 0.0466,-0.13972 -0.0382,0 -0.0172,-0.0629 0.0466,-0.13972 0.0638,-0.0768 0.0889,-0.13973 0.0558,-0.13973 -0.0331,0 0.009,-0.10479 0.0925,-0.23287 0.0839,-0.12808 0.12584,-0.23287 0.0932,-0.23287 -0.0327,0 0.002,-0.0943 0.0779,-0.20958 0.0755,-0.11527 0.13852,-0.24146 0.13999,-0.28042 0.001,-0.039 0.0647,-0.19084 0.14055,-0.3375 0.0758,-0.14666 0.11162,-0.29293 0.0795,-0.32504 -0.0321,-0.0321 -0.007,-0.0584 0.0558,-0.0584 0.0628,0 0.0883,-0.0419 0.0566,-0.0931 -0.0317,-0.0512 -0.0132,-0.0931 0.0411,-0.0931 0.0543,0 0.0882,-0.0323 0.0754,-0.0718 -0.0373,-0.11502 0.32261,-0.85973 0.41553,-0.85973 0.0465,0 0.0586,-0.0419 0.0269,-0.0931 -0.0317,-0.0512 -0.0107,-0.0931 0.0466,-0.0931 0.0573,0 0.0782,-0.0419 0.0466,-0.0932 -0.0317,-0.0512 -0.0189,-0.0931 0.0284,-0.0931 0.0473,0 0.15803,-0.18862 0.24607,-0.41917 0.088,-0.23054 0.1883,-0.41916 0.22279,-0.41916 0.0345,0 0.11488,-0.11788 0.17865,-0.26195 0.0638,-0.14407 0.19139,-0.34318 0.2836,-0.44246 0.0922,-0.0993 0.19566,-0.25386 0.22989,-0.34351 0.0342,-0.0897 0.10546,-0.16301 0.1583,-0.16301 0.0528,0 0.0961,-0.037 0.0961,-0.0823 0,-0.0981 1.96922,-2.06013 2.06768,-2.06013 0.0375,0 0.11304,-0.0838 0.16788,-0.18629 0.0548,-0.10247 0.14189,-0.1863 0.19346,-0.1863 0.0516,0 0.18351,-0.0836 0.2932,-0.1858 0.24685,-0.22997 1.20923,-0.80265 2.07492,-1.23471 1.47284,-0.73509 4.12833,-1.57411 5.66963,-1.79135 0.19809,-0.0279 0.38672,-0.0671 0.41917,-0.087 0.0324,-0.02 0.28953,-0.0634 0.5713,-0.0965 0.28178,-0.0331 0.63807,-0.0778 0.79176,-0.0993 0.86076,-0.12043 2.45354,-0.25754 4.3314,-0.37285 0.53793,-0.033 1.04443,-0.0782 1.12555,-0.10031 0.36577,-0.0998 0.0719,0.31585 -0.88491,1.2516 -0.56782,0.55534 -1.51273,1.50894 -2.09981,2.11912 -1.288,1.33869 -14.0911,14.41812 -16.03612,16.38224 l -1.38016,1.39372 z"
   style="opacity:1;fill:#999999;fill-opacity:0.21176471;stroke-width:0.09314836" /><path
   id="path1071"
   d="m 214.36084,386.83072 c -0.11922,-0.28426 -0.22299,-0.54828 -0.23059,-0.5867 -0.008,-0.0384 -0.0243,-0.0908 -0.0371,-0.11644 -0.0128,-0.0256 -0.0338,-0.0885 -0.0466,-0.13972 -0.0128,-0.0512 -0.0338,-0.11411 -0.0466,-0.13972 -0.0128,-0.0256 -0.0338,-0.0885 -0.0466,-0.13972 -0.0128,-0.0512 -0.0338,-0.11411 -0.0466,-0.13973 -0.0128,-0.0256 -0.0338,-0.0885 -0.0466,-0.13972 -0.0128,-0.0512 -0.0334,-0.12459 -0.0457,-0.16301 -0.0123,-0.0384 -0.0321,-0.11178 -0.044,-0.16301 -0.0119,-0.0512 -0.0334,-0.11411 -0.0477,-0.13972 -0.0295,-0.0527 -0.0811,-0.35832 -0.14151,-0.83834 -0.0388,-0.30791 -0.0474,-2.42299 -0.0123,-3.02732 0.009,-0.15369 0.0494,-0.33221 0.0899,-0.39671 0.0405,-0.0645 0.0483,-0.1972 0.0173,-0.2949 -0.031,-0.0977 -0.01,-0.20635 0.0469,-0.24145 0.0568,-0.0351 0.0813,-0.12113 0.0544,-0.19116 -0.0269,-0.07 -0.0114,-0.15044 0.0343,-0.17871 0.0457,-0.0283 0.0853,-0.12392 0.0879,-0.21256 0.0105,-0.36026 0.0423,-0.4872 0.1221,-0.4872 0.0461,0 0.0573,-0.0838 0.0248,-0.18629 -0.0362,-0.11411 -0.0167,-0.1863 0.0503,-0.1863 0.0602,0 0.0853,-0.0629 0.0558,-0.13972 -0.0295,-0.0768 -0.009,-0.13973 0.0466,-0.13973 0.0551,0 0.0761,-0.0629 0.0466,-0.13972 -0.0295,-0.0768 -0.009,-0.13972 0.0466,-0.13972 0.0551,0 0.0771,-0.0602 0.0489,-0.13371 -0.0282,-0.0735 -0.0156,-0.14689 0.0281,-0.16301 0.0437,-0.0161 0.0937,-0.11313 0.1112,-0.2156 0.0175,-0.10246 0.0654,-0.21102 0.10635,-0.24125 0.041,-0.0302 0.0813,-0.1455 0.0897,-0.25616 0.008,-0.11066 0.0414,-0.2012 0.0735,-0.2012 0.095,0 0.28161,-0.47214 0.22369,-0.56587 -0.0293,-0.0474 -0.006,-0.0862 0.0509,-0.0862 0.0573,0 0.0805,-0.0383 0.0515,-0.0852 -0.029,-0.0469 -0.0202,-0.0992 0.0195,-0.11644 0.0927,-0.0401 0.72175,-1.31265 0.69465,-1.40518 -0.0112,-0.0384 0.0239,-0.0699 0.0782,-0.0699 0.0542,0 0.0727,-0.0419 0.0411,-0.0931 -0.0317,-0.0512 -0.0107,-0.0932 0.0466,-0.0932 0.0573,0 0.0782,-0.0419 0.0466,-0.0931 -0.0317,-0.0512 -0.014,-0.0931 0.0393,-0.0931 0.0533,0 0.12318,-0.10479 0.15532,-0.23287 0.0322,-0.12808 0.0983,-0.23287 0.147,-0.23287 0.0487,0 0.0653,-0.0375 0.037,-0.0834 -0.0284,-0.0459 0.0137,-0.10844 0.0935,-0.13907 0.0798,-0.0306 0.12172,-0.0935 0.0931,-0.13972 -0.0286,-0.0462 0.0134,-0.1091 0.0932,-0.13972 0.0798,-0.0306 0.12172,-0.0935 0.0932,-0.13972 -0.0286,-0.0462 0.0111,-0.10823 0.0881,-0.13779 0.077,-0.0296 0.12918,-0.092 0.1159,-0.13877 -0.0305,-0.10721 2.61963,-2.75165 2.84016,-2.83411 0.0896,-0.0335 0.16301,-0.10418 0.16301,-0.15702 0,-0.0528 0.0629,-0.0961 0.13972,-0.0961 0.0768,0 0.13972,-0.0419 0.13972,-0.0932 0,-0.0512 0.0629,-0.0931 0.13973,-0.0931 0.0768,0 0.13972,-0.032 0.13972,-0.0711 0,-0.0823 0.10646,-0.14237 1.01054,-0.57016 0.36637,-0.17337 0.66613,-0.35151 0.66613,-0.39588 0,-0.0444 0.0314,-0.0721 0.0699,-0.0615 0.0384,0.0105 0.20078,-0.0507 0.36078,-0.13601 0.16001,-0.0853 0.3172,-0.12888 0.34931,-0.0968 0.0321,0.0321 0.0584,0.002 0.0584,-0.0658 0,-0.0683 0.0276,-0.0966 0.0613,-0.0629 0.0337,0.0337 0.11755,0.0146 0.1863,-0.0425 0.0687,-0.0571 0.12501,-0.0762 0.12501,-0.0425 0,0.0337 0.0943,0.009 0.20958,-0.0552 0.11527,-0.064 0.24102,-0.12314 0.27945,-0.13136 0.0384,-0.008 0.0908,-0.0254 0.11643,-0.0382 0.0256,-0.0128 0.0885,-0.0338 0.13972,-0.0466 0.0512,-0.0128 0.11411,-0.0338 0.13973,-0.0466 0.0256,-0.0128 0.0885,-0.0338 0.13972,-0.0466 0.0512,-0.0128 0.11411,-0.0338 0.13972,-0.0466 0.0256,-0.0128 0.0885,-0.0338 0.13972,-0.0466 0.0512,-0.0128 0.10363,-0.0317 0.11644,-0.0421 0.0128,-0.0103 0.10712,-0.0381 0.20958,-0.0616 0.31504,-0.0725 0.46574,-0.11429 0.46574,-0.12918 0,-0.008 0.0629,-0.0296 0.13973,-0.0483 0.28743,-0.0699 0.56527,-0.13971 0.76847,-0.19296 0.11527,-0.0302 0.29342,-0.0686 0.39588,-0.0854 0.10247,-0.0168 0.1863,-0.0394 0.1863,-0.0502 0,-0.0109 0.10479,-0.0322 0.23287,-0.0475 0.12808,-0.0152 0.34814,-0.0517 0.48903,-0.0811 0.61977,-0.12937 1.02114,-0.19199 1.88625,-0.29431 0.20493,-0.0242 0.5193,-0.0616 0.69862,-0.083 0.52163,-0.0623 1.58702,-0.15275 2.14241,-0.18193 0.95582,-0.0502 2.09479,-0.14754 2.35199,-0.20099 0.19165,-0.0398 0.25616,-0.0171 0.25616,0.0903 0,0.13739 -1.24928,1.45719 -4.37797,4.62509 -0.79409,0.80404 -1.88393,1.91786 -2.42186,2.47515 -0.53793,0.55729 -2.96798,3.04654 -5.40012,5.53166 -4.83776,4.94316 -6.7135,6.87266 -7.65683,7.87627 l -0.61713,0.65657 z"
   style="opacity:1;fill:#999999;fill-opacity:0.21176471;stroke-width:0.09314836" /><path
   id="path1073"
   d="m 214.43995,387.01249 c -0.25563,-0.62657 -0.2819,-0.69992 -0.31692,-0.88491 -0.0194,-0.10246 -0.0736,-0.19948 -0.1205,-0.2156 -0.0469,-0.0161 -0.0621,-0.0895 -0.0339,-0.16301 0.0282,-0.0735 0.006,-0.1337 -0.0489,-0.1337 -0.0551,0 -0.0777,-0.0586 -0.0502,-0.1303 0.0275,-0.0717 0.007,-0.15685 -0.0454,-0.18928 -0.0525,-0.0324 -0.0734,-0.11628 -0.0466,-0.1863 0.0269,-0.07 0.006,-0.15386 -0.0466,-0.1863 -0.0525,-0.0324 -0.0735,-0.11627 -0.0466,-0.18629 0.0269,-0.07 0.007,-0.15329 -0.0445,-0.18502 -0.052,-0.0322 -0.069,-0.20766 -0.0384,-0.3965 0.0314,-0.19329 0.0187,-0.31635 -0.0294,-0.28654 -0.0952,0.0589 -0.0814,-2.31628 0.0148,-2.56718 0.0333,-0.0868 0.0343,-0.26253 0.002,-0.39049 -0.0364,-0.14508 -0.0189,-0.23267 0.0466,-0.23267 0.0648,0 0.0832,-0.087 0.048,-0.22716 -0.0316,-0.12587 -0.0117,-0.25516 0.0446,-0.28996 0.0559,-0.0345 0.0809,-0.14189 0.0556,-0.23858 -0.0253,-0.0967 -0.005,-0.17578 0.0443,-0.17578 0.0497,0 0.0791,-0.0734 0.0653,-0.16301 -0.0137,-0.0897 0.0288,-0.2606 0.0945,-0.37987 0.0657,-0.11928 0.0965,-0.27646 0.0686,-0.34931 -0.028,-0.0728 -0.006,-0.13244 0.0494,-0.13244 0.0551,0 0.0761,-0.0629 0.0466,-0.13972 -0.0295,-0.0768 -0.009,-0.13973 0.0466,-0.13973 0.0551,0 0.0761,-0.0629 0.0466,-0.13972 -0.0295,-0.0768 -0.009,-0.13972 0.0466,-0.13972 0.0551,0 0.0761,-0.0629 0.0466,-0.13972 -0.0295,-0.0769 -0.01,-0.13973 0.0444,-0.13973 0.0539,0 0.0806,-0.052 0.0594,-0.1156 -0.0212,-0.0636 0.0196,-0.17378 0.0907,-0.24488 0.0711,-0.0711 0.10722,-0.18675 0.0803,-0.25699 -0.027,-0.0702 -0.0148,-0.12771 0.0271,-0.12771 0.077,0 0.3578,-0.58147 0.40482,-0.83834 0.0141,-0.0768 0.0517,-0.16068 0.0836,-0.1863 0.0963,-0.0773 0.74029,-1.39722 0.68171,-1.39722 -0.0299,0 0.0119,-0.0663 0.0928,-0.14723 0.081,-0.081 0.12341,-0.18577 0.0943,-0.23287 -0.0291,-0.0471 -0.006,-0.0856 0.0512,-0.0856 0.0573,0 0.0782,-0.0419 0.0466,-0.0931 -0.0317,-0.0512 -0.0132,-0.0932 0.0411,-0.0932 0.0542,0 0.0986,-0.0629 0.0986,-0.13972 0,-0.0768 0.0444,-0.13972 0.0987,-0.13972 0.0542,0 0.0754,-0.0375 0.0471,-0.0834 -0.0284,-0.0459 0.0137,-0.10844 0.0935,-0.13907 0.0798,-0.0306 0.12172,-0.0935 0.0931,-0.13972 -0.0286,-0.0462 0.0134,-0.1091 0.0932,-0.13972 0.0798,-0.0306 0.12172,-0.0935 0.0932,-0.13972 -0.0286,-0.0462 0.0134,-0.1091 0.0932,-0.13973 0.0798,-0.0306 0.12757,-0.0874 0.10617,-0.12619 -0.0487,-0.0881 2.79192,-2.91013 2.86038,-2.84168 0.0275,0.0275 0.0764,-0.0189 0.10868,-0.10311 0.0323,-0.0842 0.11712,-0.15305 0.18849,-0.15305 0.0714,0 0.12975,-0.0419 0.12975,-0.0932 0,-0.0512 0.0629,-0.0931 0.13973,-0.0931 0.0768,0 0.13972,-0.0374 0.13972,-0.0831 0,-0.0457 0.10479,-0.10935 0.23287,-0.1415 0.12808,-0.0321 0.23287,-0.10204 0.23287,-0.15532 0,-0.0533 0.0356,-0.0749 0.079,-0.048 0.0435,0.0269 0.16476,-0.031 0.26953,-0.12861 0.10477,-0.0976 0.21591,-0.15205 0.24698,-0.12098 0.0311,0.0311 0.0565,0.005 0.0565,-0.0577 0,-0.0628 0.0419,-0.0883 0.0932,-0.0566 0.0512,0.0317 0.0931,0.0107 0.0931,-0.0466 0,-0.0573 0.0419,-0.0782 0.0931,-0.0466 0.0512,0.0317 0.0932,0.0107 0.0932,-0.0466 0,-0.0573 0.0419,-0.0782 0.0932,-0.0466 0.0512,0.0317 0.0931,0.006 0.0931,-0.0566 0,-0.0628 0.0274,-0.0868 0.0609,-0.0533 0.0335,0.0335 0.19471,-0.0219 0.35831,-0.12296 0.16359,-0.1011 0.32482,-0.15644 0.3583,-0.12296 0.0335,0.0335 0.0609,0.009 0.0609,-0.0533 0,-0.0628 0.039,-0.0901 0.0867,-0.0606 0.0477,0.0295 0.11346,0.0103 0.14615,-0.0426 0.0327,-0.0529 0.0985,-0.0721 0.14616,-0.0426 0.0477,0.0295 0.0867,0.007 0.0867,-0.0506 0,-0.0573 0.0314,-0.0856 0.0699,-0.063 0.0384,0.0226 0.17465,-0.002 0.30273,-0.0548 0.12808,-0.0528 0.3167,-0.11195 0.41917,-0.13148 0.10246,-0.0195 0.19948,-0.0738 0.2156,-0.12072 0.0161,-0.0469 0.0852,-0.0638 0.15359,-0.0375 0.0684,0.0262 0.15237,0.002 0.18671,-0.0533 0.0343,-0.0556 0.0986,-0.0787 0.14271,-0.0514 0.0442,0.0273 0.10547,0.009 0.13627,-0.041 0.0308,-0.0498 0.11752,-0.067 0.19273,-0.0381 0.0752,0.0289 0.13674,0.002 0.13674,-0.0606 0,-0.0622 0.0615,-0.0895 0.13674,-0.0606 0.0752,0.0289 0.16328,0.01 0.19572,-0.043 0.0324,-0.0525 0.11627,-0.0734 0.1863,-0.0466 0.07,0.0269 0.15251,0.008 0.18331,-0.0418 0.0308,-0.0498 0.0968,-0.0653 0.14678,-0.0345 0.0499,0.0309 0.14652,0.01 0.21463,-0.0467 0.0681,-0.0565 0.18778,-0.0782 0.26594,-0.0482 0.0782,0.03 0.16735,0.0137 0.1982,-0.0362 0.0309,-0.0499 0.13515,-0.0701 0.23178,-0.0448 0.0966,0.0253 0.20272,0.002 0.23576,-0.0512 0.033,-0.0535 0.12214,-0.0734 0.198,-0.0443 0.0759,0.0291 0.19495,0.006 0.26465,-0.0523 0.0697,-0.0578 0.19291,-0.0798 0.2738,-0.0487 0.0809,0.031 0.20147,0.0219 0.26796,-0.0202 0.12148,-0.0771 0.45502,-0.1201 0.94174,-0.12151 0.14407,-4.2e-4 0.31154,-0.0314 0.37217,-0.0689 0.0606,-0.0375 0.27808,-0.0767 0.48324,-0.0873 0.20516,-0.0105 0.60356,-0.0404 0.88533,-0.0663 0.71193,-0.0655 1.89623,-0.1521 2.56158,-0.18731 0.30739,-0.0163 0.73704,-0.0612 0.95477,-0.0998 0.28689,-0.0509 0.39588,-0.0391 0.39588,0.0428 0,0.1261 -1.1483,1.34509 -4.51565,4.79361 -1.25065,1.28079 -4.40349,4.50917 -7.00632,7.17418 -2.60283,2.66501 -5.68286,5.82973 -6.8445,7.0327 l -2.11209,2.18723 z"
   style="opacity:1;fill:#999999;fill-opacity:0.21176471;stroke-width:0.09314836" /><path
   id="path1075"
   d="m 214.42024,387.01459 c -0.0865,-0.16722 -0.17695,-0.41425 -0.20106,-0.54895 -0.0241,-0.1347 -0.0809,-0.2581 -0.12628,-0.27421 -0.0453,-0.0161 -0.0593,-0.0895 -0.0311,-0.16301 0.0282,-0.0735 0.006,-0.13371 -0.0489,-0.13371 -0.0551,0 -0.0761,-0.0629 -0.0466,-0.13972 0.0295,-0.0769 0.009,-0.13972 -0.0466,-0.13972 -0.0551,0 -0.0761,-0.0629 -0.0466,-0.13973 0.0295,-0.0768 0.0111,-0.13972 -0.0408,-0.13972 -0.0519,0 -0.0725,-0.0838 -0.0457,-0.1863 0.0285,-0.10883 0.003,-0.18629 -0.0616,-0.18629 -0.0663,0 -0.0877,-0.0712 -0.0536,-0.17846 0.0311,-0.0981 0.0198,-0.20124 -0.0253,-0.22908 -0.11559,-0.0714 -0.10954,-3.87729 0.006,-3.87729 0.052,0 0.0673,-0.12073 0.0356,-0.27944 -0.0348,-0.17397 -0.0175,-0.27945 0.0458,-0.27945 0.0559,0 0.0798,-0.0838 0.053,-0.18629 -0.0268,-0.10247 -0.0194,-0.1863 0.0164,-0.1863 0.0917,0 0.30428,-0.83309 0.23938,-0.93809 -0.0294,-0.0476 -0.0161,-0.0865 0.0295,-0.0865 0.10164,0 0.31136,-0.65237 0.24449,-0.76056 -0.0264,-0.0428 -1.8e-4,-0.0778 0.0583,-0.0778 0.0585,0 0.0891,-0.052 0.0679,-0.1156 -0.0212,-0.0636 0.0196,-0.17378 0.0907,-0.24488 0.0711,-0.0711 0.10826,-0.18404 0.0826,-0.25097 -0.0257,-0.0669 -0.0142,-0.13489 0.0255,-0.151 0.11028,-0.0448 1.39685,-2.75702 1.33646,-2.81742 -0.0291,-0.0291 -0.002,-0.0529 0.0613,-0.0529 0.0628,0 0.0883,-0.0419 0.0566,-0.0931 -0.0317,-0.0512 -0.0107,-0.0932 0.0466,-0.0932 0.0573,0 0.081,-0.0375 0.0526,-0.0834 -0.0283,-0.0459 0.0138,-0.10844 0.0936,-0.13906 0.0798,-0.0306 0.119,-0.0979 0.0871,-0.14949 -0.0319,-0.0516 -0.0179,-0.0938 0.031,-0.0938 0.0489,0 0.21967,-0.20373 0.37946,-0.45274 0.28036,-0.43691 3.35876,-3.54117 3.36452,-3.39279 0.002,0.0402 0.0461,-0.001 0.0989,-0.0919 0.0528,-0.0907 0.13538,-0.14065 0.18346,-0.11094 0.0481,0.0297 0.0874,0.01 0.0874,-0.0446 0,-0.0543 0.0629,-0.0987 0.13972,-0.0987 0.0769,0 0.13972,-0.0444 0.13972,-0.0986 0,-0.0543 0.0419,-0.0727 0.0931,-0.0411 0.0512,0.0317 0.0932,0.0107 0.0932,-0.0466 0,-0.0573 0.0422,-0.0781 0.0938,-0.0462 0.0516,0.0319 0.11886,-0.007 0.14948,-0.0871 0.0306,-0.0798 0.0932,-0.1219 0.13906,-0.0935 0.0459,0.0283 0.0834,0.005 0.0834,-0.0526 0,-0.0573 0.0419,-0.0782 0.0931,-0.0466 0.0512,0.0317 0.0932,0.0107 0.0932,-0.0466 0,-0.0573 0.0419,-0.0782 0.0932,-0.0466 0.0512,0.0317 0.0931,0.0107 0.0931,-0.0466 0,-0.0573 0.0419,-0.0782 0.0931,-0.0466 0.0512,0.0317 0.0932,0.0107 0.0932,-0.0466 0,-0.0573 0.0419,-0.0782 0.0932,-0.0466 0.0512,0.0317 0.0931,0.0107 0.0931,-0.0466 0,-0.0573 0.0419,-0.0782 0.0932,-0.0466 0.0512,0.0317 0.0931,0.0132 0.0931,-0.0411 0,-0.0543 0.0314,-0.0918 0.0699,-0.0834 0.14389,0.0315 0.58217,-0.13202 0.58217,-0.21717 0,-0.0487 0.039,-0.0644 0.0867,-0.035 0.0477,0.0295 0.11346,0.0103 0.14615,-0.0426 0.0327,-0.0529 0.0985,-0.0721 0.14616,-0.0426 0.0477,0.0295 0.0867,0.009 0.0867,-0.0451 0,-0.0542 0.0314,-0.0907 0.0699,-0.0809 0.14217,0.0361 0.67532,-0.12851 0.67532,-0.20852 0,-0.0455 0.0629,-0.0587 0.13972,-0.0292 0.0769,0.0295 0.13973,0.009 0.13973,-0.0466 0,-0.0551 0.0629,-0.0761 0.13972,-0.0466 0.0769,0.0295 0.13972,0.003 0.13972,-0.0595 0,-0.0622 0.0615,-0.0895 0.13674,-0.0606 0.0752,0.0289 0.16038,0.0142 0.18928,-0.0325 0.0289,-0.0468 0.11407,-0.0614 0.18928,-0.0325 0.0752,0.0289 0.13674,0.007 0.13674,-0.0477 0,-0.0551 0.0586,-0.0777 0.1303,-0.0502 0.0717,0.0275 0.15684,0.007 0.18928,-0.0454 0.0324,-0.0525 0.11627,-0.0735 0.1863,-0.0466 0.07,0.0269 0.15541,0.003 0.18975,-0.0522 0.0343,-0.0556 0.10329,-0.0758 0.15322,-0.0449 0.0499,0.0309 0.14652,0.01 0.21463,-0.0467 0.0681,-0.0565 0.19202,-0.0766 0.27537,-0.0446 0.0847,0.0325 0.15152,0.0119 0.15152,-0.0467 0,-0.0654 0.0877,-0.0829 0.23288,-0.0464 0.14525,0.0365 0.23287,0.0189 0.23287,-0.0466 0,-0.0655 0.0876,-0.083 0.23287,-0.0466 0.14106,0.0354 0.23287,0.0187 0.23287,-0.0425 0,-0.0625 0.10651,-0.0796 0.27944,-0.045 0.18023,0.036 0.27945,0.018 0.27945,-0.0507 0,-0.0665 0.0856,-0.0851 0.22757,-0.0495 0.12517,0.0314 0.28176,0.0236 0.34797,-0.0173 0.0662,-0.0409 0.25299,-0.063 0.41505,-0.049 0.16207,0.014 0.32149,-0.018 0.35426,-0.071 0.0328,-0.053 0.18243,-0.0719 0.33256,-0.0418 0.15012,0.03 0.3476,0.0232 0.43884,-0.0151 0.0912,-0.0383 0.34301,-0.0612 0.5595,-0.0507 0.21649,0.0104 0.44703,-0.0144 0.51232,-0.0552 0.0653,-0.0408 0.41211,-0.0833 0.77073,-0.0946 1.04537,-0.0328 1.83364,-0.0921 2.25885,-0.16984 0.2777,-0.0508 0.39588,-0.0405 0.39588,0.0345 0,0.0588 -0.48783,0.60919 -1.08406,1.22319 -0.59623,0.614 -1.04966,1.11636 -1.00761,1.11636 0.042,0 -0.75907,0.83039 -1.78026,1.84532 -1.02118,1.01493 -2.94653,2.97097 -4.27855,4.34676 -1.33202,1.37579 -3.55361,3.65235 -4.93686,5.05903 -1.38326,1.40667 -2.50708,2.58674 -2.49738,2.62239 0.01,0.0356 -1.08644,1.16828 -2.43585,2.51698 l -2.45348,2.45217 z"
   style="opacity:1;fill:#999999;fill-opacity:0.21176471;stroke-width:0.09314836" /><path
   id="path1077"
   d="m 214.38547,386.94459 c -0.10516,-0.20612 -0.16505,-0.40092 -0.13309,-0.43288 0.032,-0.032 0.0105,-0.0581 -0.0476,-0.0581 -0.0582,0 -0.0816,-0.0629 -0.0521,-0.13972 0.0295,-0.0768 0.009,-0.13972 -0.0466,-0.13972 -0.0551,0 -0.0761,-0.0629 -0.0466,-0.13973 0.0295,-0.0768 0.009,-0.13972 -0.0466,-0.13972 -0.0551,0 -0.0761,-0.0629 -0.0466,-0.13972 0.0295,-0.0769 0.009,-0.13972 -0.0466,-0.13972 -0.0551,0 -0.0761,-0.0629 -0.0466,-0.13973 0.0295,-0.0768 0.0111,-0.13972 -0.0408,-0.13972 -0.0519,0 -0.0725,-0.0838 -0.0457,-0.1863 0.0268,-0.10246 0.006,-0.18629 -0.0466,-0.18629 -0.0524,0 -0.0734,-0.0838 -0.0466,-0.1863 0.0268,-0.10246 0.009,-0.1863 -0.0394,-0.1863 -0.0526,0 -0.0876,-0.80394 -0.087,-1.99764 7.1e-4,-1.27088 0.0341,-1.97727 0.0917,-1.94164 0.0556,0.0344 0.0684,-0.055 0.0332,-0.23136 -0.0316,-0.15806 -0.026,-0.3008 0.0124,-0.31721 0.11841,-0.0506 0.3903,-1.17447 0.32518,-1.34419 -0.0396,-0.10309 -0.0253,-0.13772 0.04,-0.0973 0.0888,0.0548 0.2441,-0.33601 0.25341,-0.63757 0.002,-0.0512 0.0242,-0.11411 0.0502,-0.13973 0.026,-0.0256 0.19043,-0.38191 0.36537,-0.79176 0.17493,-0.40985 0.53928,-1.1909 0.80965,-1.73567 0.27038,-0.54477 0.46575,-1.01633 0.43416,-1.04792 -0.0316,-0.0316 -0.006,-0.0574 0.0567,-0.0574 0.0628,0 0.0883,-0.0419 0.0566,-0.0931 -0.0317,-0.0512 -0.006,-0.0932 0.0566,-0.0932 0.0628,0 0.0897,-0.0245 0.0598,-0.0543 -0.0299,-0.0299 0.0155,-0.12791 0.10091,-0.21785 0.0854,-0.0899 0.33836,-0.42033 0.56217,-0.73423 0.39077,-0.54807 3.26944,-3.45181 3.27527,-3.3038 0.002,0.0396 0.0461,-0.002 0.0989,-0.093 0.0528,-0.0907 0.13099,-0.14337 0.1737,-0.11697 0.0427,0.0264 0.10272,-0.0173 0.13334,-0.0971 0.0306,-0.0798 0.0979,-0.119 0.14949,-0.0871 0.0516,0.0319 0.0938,0.0111 0.0938,-0.0462 0,-0.0573 0.0404,-0.0792 0.0897,-0.0487 0.0494,0.0305 0.16813,-0.0194 0.26392,-0.11094 0.0958,-0.0915 0.23356,-0.18003 0.30613,-0.19668 0.0726,-0.0167 0.14602,-0.0693 0.16321,-0.11701 0.0172,-0.0477 0.0696,-0.0631 0.11643,-0.0341 0.0469,0.029 0.0852,0.006 0.0852,-0.0515 0,-0.0573 0.0419,-0.0782 0.0931,-0.0466 0.0512,0.0317 0.0932,0.0107 0.0932,-0.0466 0,-0.0573 0.0419,-0.0782 0.0932,-0.0466 0.0512,0.0317 0.0931,0.0107 0.0931,-0.0466 0,-0.0573 0.0419,-0.0782 0.0932,-0.0466 0.0512,0.0317 0.0931,0.0107 0.0931,-0.0466 0,-0.0573 0.0419,-0.0782 0.0932,-0.0466 0.0512,0.0317 0.0931,0.0221 0.0931,-0.0213 0,-0.0433 0.0937,-0.0859 0.20821,-0.0945 0.11451,-0.009 0.22288,-0.0597 0.24082,-0.11355 0.0179,-0.0538 0.071,-0.0742 0.11782,-0.0452 0.0468,0.029 0.0852,0.004 0.0852,-0.056 0,-0.0597 0.0629,-0.0845 0.13972,-0.055 0.0769,0.0295 0.13973,0.0105 0.13973,-0.0421 0,-0.0526 0.0419,-0.0698 0.0931,-0.0382 0.0512,0.0317 0.0932,0.0145 0.0932,-0.0381 0,-0.0526 0.0629,-0.0716 0.13972,-0.0421 0.0768,0.0295 0.13973,0.009 0.13973,-0.0466 0,-0.0551 0.0629,-0.0761 0.13972,-0.0466 0.0768,0.0295 0.13972,0.009 0.13972,-0.0466 0,-0.0551 0.0629,-0.0761 0.13972,-0.0466 0.0769,0.0295 0.13973,0.009 0.13973,-0.0466 0,-0.0551 0.0629,-0.0761 0.13972,-0.0466 0.0769,0.0295 0.13972,0.009 0.13972,-0.0466 0,-0.0551 0.0586,-0.0777 0.1303,-0.0502 0.0717,0.0275 0.15684,0.007 0.18928,-0.0454 0.0324,-0.0525 0.12051,-0.0718 0.19572,-0.043 0.0752,0.0289 0.13674,0.007 0.13674,-0.0477 0,-0.0551 0.0586,-0.0777 0.1303,-0.0502 0.0717,0.0275 0.15684,0.007 0.18928,-0.0454 0.0324,-0.0525 0.12051,-0.0718 0.19572,-0.043 0.0752,0.0289 0.13674,0.003 0.13674,-0.0569 0,-0.0654 0.0718,-0.0866 0.17846,-0.0528 0.0981,0.0311 0.20298,0.0169 0.23296,-0.0316 0.03,-0.0485 0.1383,-0.0663 0.24071,-0.0395 0.10545,0.0276 0.1862,0.003 0.1862,-0.0571 0,-0.0663 0.0869,-0.084 0.23288,-0.0473 0.14525,0.0365 0.23287,0.0189 0.23287,-0.0466 0,-0.0655 0.0876,-0.083 0.23287,-0.0466 0.14106,0.0354 0.23287,0.0187 0.23287,-0.0425 0,-0.0625 0.10651,-0.0796 0.27944,-0.045 0.17018,0.034 0.27945,0.0172 0.27945,-0.043 0,-0.0618 0.12764,-0.0782 0.3405,-0.0437 0.22842,0.0371 0.3204,0.0227 0.27942,-0.0436 -0.041,-0.0663 0.0616,-0.0824 0.31154,-0.0488 0.22151,0.0297 0.37262,0.0119 0.37262,-0.044 0,-0.0563 0.16815,-0.075 0.41916,-0.0467 0.2341,0.0264 0.41917,0.008 0.41917,-0.0407 0,-0.0501 0.24619,-0.0701 0.57189,-0.0466 0.36559,0.0264 0.55122,0.008 0.5146,-0.0513 -0.0369,-0.0597 0.17385,-0.0761 0.59247,-0.0462 0.3588,0.0257 0.64975,0.009 0.64975,-0.0376 0,-0.0463 0.3039,-0.0884 0.67532,-0.0937 0.37143,-0.005 0.82757,-0.0399 1.01364,-0.0771 0.19966,-0.0398 0.36171,-0.0296 0.39543,0.025 0.0314,0.0508 -0.41887,0.58929 -1.00066,1.19655 -0.58179,0.60726 -1.06103,1.13822 -1.06497,1.17992 -0.004,0.0417 -0.84709,0.8936 -1.87365,1.89311 -1.02656,0.99952 -1.85702,1.85 -1.84547,1.88995 0.0115,0.0399 -0.90888,1.01143 -2.04539,2.15884 -4.31957,4.36096 -7.10573,7.22594 -7.46394,7.67509 -0.20428,0.25616 -1.44048,1.53032 -2.74709,2.83146 l -2.37567,2.36571 z"
   style="opacity:1;fill:#999999;fill-opacity:0.21176471;stroke-width:0.09314836" /><path
   id="path1079"
   d="m 214.38538,386.94442 c -0.10511,-0.20603 -0.16496,-0.40075 -0.133,-0.43271 0.032,-0.032 0.0105,-0.0581 -0.0476,-0.0581 -0.0582,0 -0.0816,-0.0629 -0.0521,-0.13972 0.0295,-0.0768 0.005,-0.13972 -0.055,-0.13972 -0.0597,0 -0.087,-0.035 -0.0605,-0.0778 0.0614,-0.0993 -0.13882,-0.76056 -0.23028,-0.76056 -0.0378,0 -0.0452,-0.0904 -0.0163,-0.20086 0.0369,-0.14103 0.0193,-0.18033 -0.059,-0.13192 -0.0807,0.0499 -0.0948,0.002 -0.0512,-0.17173 0.0332,-0.13237 0.0222,-0.24068 -0.0246,-0.24068 -0.0495,0 -0.0715,-0.80656 -0.0527,-1.93282 0.04,-2.3919 0.0503,-2.63652 0.10892,-2.5779 0.0829,0.0829 0.37513,-1.11805 0.31902,-1.31105 -0.0298,-0.10246 -0.0201,-0.15397 0.0215,-0.11446 0.0416,0.0395 0.20756,-0.29582 0.36878,-0.74518 0.16122,-0.44937 0.58916,-1.43263 0.95097,-2.18503 0.36181,-0.75239 0.63421,-1.39162 0.60532,-1.42051 -0.0289,-0.0289 -0.001,-0.0525 0.0617,-0.0525 0.0628,0 0.0883,-0.0419 0.0566,-0.0931 -0.0317,-0.0512 -0.006,-0.0932 0.0566,-0.0932 0.0628,0 0.0912,-0.023 0.0631,-0.0511 -0.0281,-0.0281 0.026,-0.14335 0.1203,-0.25615 0.0943,-0.11281 0.42079,-0.51948 0.72564,-0.90372 0.79671,-1.00418 3.28565,-3.40238 3.4061,-3.28193 0.0266,0.0266 0.0747,-0.0202 0.10693,-0.10412 0.0322,-0.0839 0.096,-0.12932 0.14192,-0.10098 0.0459,0.0283 0.0834,0.005 0.0834,-0.0526 0,-0.0573 0.0404,-0.0792 0.0897,-0.0487 0.0494,0.0305 0.16813,-0.0194 0.26392,-0.11094 0.0958,-0.0915 0.23356,-0.18003 0.30613,-0.19668 0.0726,-0.0167 0.14602,-0.0693 0.16321,-0.11701 0.0172,-0.0477 0.0696,-0.0631 0.11643,-0.0341 0.0469,0.029 0.0852,0.006 0.0852,-0.0515 0,-0.0573 0.0385,-0.0803 0.0856,-0.0512 0.0471,0.0291 0.14691,-0.008 0.22179,-0.0832 0.0749,-0.0749 0.16209,-0.11019 0.1938,-0.0785 0.0317,0.0317 0.0577,0.006 0.0577,-0.0565 0,-0.0628 0.0419,-0.0883 0.0932,-0.0566 0.0512,0.0317 0.0931,0.0107 0.0931,-0.0466 0,-0.0573 0.0419,-0.0782 0.0932,-0.0466 0.0512,0.0317 0.0932,0.0145 0.0932,-0.0382 0,-0.0526 0.0629,-0.0716 0.13972,-0.0421 0.0769,0.0295 0.13972,0.005 0.13972,-0.055 0,-0.0597 0.0419,-0.0827 0.0932,-0.051 0.0512,0.0317 0.0931,0.0145 0.0931,-0.0381 0,-0.0527 0.0629,-0.0716 0.13972,-0.0421 0.0769,0.0295 0.13973,0.005 0.13973,-0.055 0,-0.0597 0.0419,-0.0827 0.0931,-0.0511 0.0512,0.0317 0.0932,0.0145 0.0932,-0.0381 0,-0.0526 0.0629,-0.0716 0.13972,-0.0421 0.0768,0.0295 0.13973,0.009 0.13973,-0.0466 0,-0.0551 0.0629,-0.0761 0.13972,-0.0466 0.0768,0.0295 0.13972,0.009 0.13972,-0.0466 0,-0.0551 0.0629,-0.0761 0.13972,-0.0466 0.0769,0.0295 0.13973,0.009 0.13973,-0.0466 0,-0.0551 0.0629,-0.0761 0.13972,-0.0466 0.0769,0.0295 0.13972,0.009 0.13972,-0.0466 0,-0.0551 0.0629,-0.0761 0.13972,-0.0466 0.0769,0.0295 0.13973,0.0111 0.13973,-0.0408 0,-0.0519 0.0904,-0.0707 0.20086,-0.0419 0.14625,0.0382 0.18107,0.0205 0.12806,-0.0653 -0.0536,-0.0868 -0.0207,-0.10125 0.12515,-0.055 0.12247,0.0389 0.19797,0.0225 0.19797,-0.0429 0,-0.0633 0.0747,-0.082 0.18629,-0.0466 0.11159,0.0354 0.1863,0.0167 0.1863,-0.0466 0,-0.0633 0.0747,-0.082 0.1863,-0.0466 0.10826,0.0344 0.18629,0.0167 0.18629,-0.0421 0,-0.0614 0.0915,-0.0782 0.23287,-0.0428 0.12849,0.0323 0.23287,0.018 0.23287,-0.0319 0,-0.0497 0.1048,-0.0703 0.23288,-0.0458 0.12807,0.0245 0.23287,0.004 0.23287,-0.0466 0,-0.0501 0.10479,-0.0711 0.23287,-0.0466 0.12808,0.0245 0.23287,0.005 0.23287,-0.0434 0,-0.0483 0.1317,-0.0685 0.29267,-0.0449 0.22378,0.0328 0.275,0.0144 0.21759,-0.0785 -0.0554,-0.0896 -0.0304,-0.10437 0.0951,-0.0562 0.20684,0.0794 1.27083,-0.03 1.21235,-0.12465 -0.0229,-0.037 0.17268,-0.0467 0.43461,-0.0216 0.2832,0.0272 0.45443,0.0105 0.42245,-0.0413 -0.032,-0.0518 0.19805,-0.0737 0.56854,-0.054 0.39515,0.021 0.57732,0.002 0.49904,-0.0523 -0.0771,-0.0533 0.14643,-0.068 0.59578,-0.0392 0.45633,0.0293 0.69852,0.0129 0.66279,-0.0449 -0.0346,-0.056 0.20239,-0.0927 0.61515,-0.0952 0.36929,-0.002 0.84958,-0.0345 1.06731,-0.0716 0.31247,-0.0532 0.39588,-0.0393 0.39588,0.0657 0,0.0732 -0.46473,0.62252 -1.03273,1.22072 -0.568,0.59819 -1.01453,1.08762 -0.99228,1.08762 0.0222,0 -0.81035,0.84464 -1.8502,1.87698 -1.03985,1.03234 -1.88227,1.90667 -1.87203,1.94295 0.0102,0.0363 -0.86808,0.96263 -1.95181,2.05854 -3.20591,3.24192 -6.33351,6.45449 -7.83435,8.04721 -0.77242,0.8197 -2.17932,2.26145 -3.12644,3.20388 l -1.72204,1.7135 z"
   style="opacity:1;fill:#999999;fill-opacity:0.21176471;stroke-width:0.09314836" /><path
   id="path1081"
   d="m 214.37239,386.94263 c -0.0719,-0.19212 -0.12226,-0.38074 -0.11186,-0.41917 0.0104,-0.0384 -0.0217,-0.0699 -0.0713,-0.0699 -0.0496,0 -0.0661,-0.0629 -0.0366,-0.13972 0.0295,-0.0768 0.005,-0.13972 -0.055,-0.13972 -0.0597,0 -0.087,-0.035 -0.0605,-0.0778 0.0614,-0.0993 -0.13882,-0.76056 -0.23028,-0.76056 -0.0378,0 -0.0452,-0.0904 -0.0163,-0.20086 0.0369,-0.14103 0.0193,-0.18033 -0.059,-0.13192 -0.0807,0.0499 -0.0948,0.002 -0.0512,-0.17173 0.0332,-0.13237 0.0244,-0.24067 -0.0196,-0.24066 -0.0652,10e-6 -0.0663,-1.42028 -0.003,-4.20875 0.004,-0.1887 0.0336,-0.3271 0.0652,-0.30756 0.0316,0.0195 0.13428,-0.2662 0.22815,-0.63498 0.28842,-1.13307 0.69301,-2.19227 1.4036,-3.67453 0.37455,-0.78128 0.66147,-1.42051 0.6376,-1.42051 -0.0239,0 0.001,-0.0524 0.0561,-0.11644 0.0547,-0.064 0.27644,-0.37544 0.4927,-0.69201 0.21627,-0.31656 0.85076,-1.06459 1.40997,-1.66229 0.8714,-0.93135 1.38614,-1.4108 2.54169,-2.3674 0.1128,-0.0934 0.22807,-0.14682 0.25616,-0.11874 0.0281,0.0281 0.0511,-0.005 0.0511,-0.0731 0,-0.0683 0.0274,-0.0968 0.0609,-0.0633 0.0616,0.0616 0.68301,-0.27649 0.78788,-0.42873 0.0314,-0.0455 0.0855,-0.0748 0.12043,-0.0651 0.11628,0.0323 0.61434,-0.20928 0.61434,-0.29793 0,-0.048 0.0419,-0.0614 0.0932,-0.0298 0.0512,0.0317 0.0931,0.0107 0.0931,-0.0466 0,-0.0573 0.0419,-0.0782 0.0932,-0.0466 0.0512,0.0317 0.0932,0.0145 0.0932,-0.0382 0,-0.0526 0.0697,-0.069 0.155,-0.0362 0.11327,0.0435 0.13424,0.0259 0.0779,-0.0653 -0.0564,-0.0912 -0.0354,-0.10879 0.0779,-0.0653 0.0853,0.0327 0.155,0.0202 0.155,-0.0278 0,-0.048 0.0575,-0.0652 0.12771,-0.0383 0.0702,0.027 0.18589,-0.009 0.25699,-0.0803 0.0711,-0.0711 0.1813,-0.11194 0.24488,-0.0907 0.0636,0.0212 0.11561,-0.006 0.11561,-0.0595 0,-0.0539 0.0629,-0.0739 0.13972,-0.0444 0.0768,0.0295 0.13975,0.0177 0.13979,-0.0262 3e-5,-0.0439 0.11402,-0.0865 0.25329,-0.0945 0.13928,-0.008 0.26771,-0.0581 0.2854,-0.1112 0.0177,-0.0531 0.0923,-0.0734 0.16587,-0.0452 0.0735,0.0282 0.13371,0.009 0.13371,-0.0431 0,-0.0519 0.0904,-0.0707 0.20086,-0.0419 0.14625,0.0382 0.18107,0.0205 0.12806,-0.0653 -0.0536,-0.0868 -0.0207,-0.10125 0.12515,-0.055 0.12247,0.0389 0.19797,0.0225 0.19797,-0.0429 0,-0.0633 0.0747,-0.082 0.18629,-0.0466 0.11159,0.0354 0.1863,0.0167 0.1863,-0.0466 0,-0.0633 0.0747,-0.082 0.1863,-0.0466 0.10246,0.0325 0.18629,0.0202 0.18629,-0.0274 0,-0.0476 0.11102,-0.0653 0.24672,-0.0394 0.16854,0.0322 0.2261,0.0138 0.18166,-0.0581 -0.0458,-0.0741 0.0233,-0.0876 0.23351,-0.0455 0.21179,0.0424 0.27947,0.0288 0.23288,-0.0466 -0.0466,-0.0754 0.0211,-0.0889 0.23287,-0.0466 0.20537,0.0411 0.27885,0.0278 0.23541,-0.0425 -0.0436,-0.0706 0.0429,-0.085 0.27944,-0.0466 0.27005,0.0438 0.32643,0.0294 0.26626,-0.0679 -0.0568,-0.092 -0.0329,-0.10683 0.0938,-0.0582 0.20684,0.0794 1.27083,-0.03 1.21235,-0.12465 -0.0229,-0.037 0.17268,-0.0467 0.43461,-0.0216 0.37708,0.0362 0.46052,0.0203 0.40075,-0.0764 -0.0564,-0.0912 -0.0307,-0.10496 0.10119,-0.0543 0.22077,0.0847 2.3297,-0.0384 2.1854,-0.12755 -0.058,-0.0358 0.2006,-0.0647 0.57464,-0.0641 0.37403,5.9e-4 0.87916,-0.0325 1.12251,-0.0736 0.33406,-0.0563 0.44245,-0.0457 0.44245,0.0433 0,0.16906 -1.1276,1.3931 -3.61571,3.92496 -1.19456,1.21555 -2.17565,2.24429 -2.18021,2.28607 -0.005,0.0418 -0.70953,0.78857 -1.56659,1.65951 -3.05799,3.10749 -6.31242,6.4442 -7.31352,7.49844 -1.44952,1.52644 -5.66179,5.7752 -5.7256,5.7752 -0.0295,0 -0.11243,-0.15719 -0.18435,-0.34931 z"
   style="opacity:1;fill:#999999;fill-opacity:0.21176471;stroke-width:0.09314836" /><path
   id="path1083"
   d="m 214.35291,386.87277 c -0.0617,-0.23054 -0.14781,-0.41917 -0.19144,-0.41917 -0.0436,0 -0.058,-0.0345 -0.032,-0.0766 0.0639,-0.10331 -0.36146,-1.43021 -0.43489,-1.35679 -0.0319,0.0319 -0.055,-1.07808 -0.0514,-2.46657 0.004,-1.38849 0.0356,-2.50654 0.0712,-2.48455 0.0356,0.022 0.16016,-0.32446 0.27685,-0.76987 0.2696,-1.02895 0.67928,-2.07517 1.4114,-3.60428 0.31888,-0.66601 0.57611,-1.28902 0.57163,-1.38447 -0.004,-0.0954 0.0159,-0.14953 0.0452,-0.1202 0.0293,0.0293 0.20849,-0.18598 0.39812,-0.4785 0.66193,-1.02109 3.08104,-3.52358 3.91918,-4.05424 0.15223,-0.0964 0.27679,-0.21553 0.27679,-0.26475 0,-0.0492 0.0419,-0.0636 0.0931,-0.0319 0.0512,0.0317 0.0932,0.006 0.0932,-0.0566 0,-0.0628 0.0274,-0.0868 0.0609,-0.0533 0.0616,0.0616 0.68301,-0.27649 0.78788,-0.42873 0.0314,-0.0455 0.0855,-0.0748 0.12043,-0.0651 0.14551,0.0404 0.60718,-0.21736 0.55131,-0.30777 -0.0377,-0.061 -0.002,-0.0757 0.0943,-0.0387 0.0853,0.0327 0.155,0.0164 0.155,-0.0362 0,-0.0526 0.0419,-0.0698 0.0932,-0.0381 0.0512,0.0317 0.0932,0.0145 0.0932,-0.0382 0,-0.0526 0.0697,-0.069 0.155,-0.0362 0.11327,0.0435 0.13424,0.0259 0.0779,-0.0653 -0.0564,-0.0912 -0.0354,-0.10879 0.0779,-0.0653 0.0853,0.0327 0.155,0.0202 0.155,-0.0278 0,-0.048 0.0575,-0.0652 0.12771,-0.0383 0.0702,0.027 0.18551,-0.006 0.25616,-0.0728 0.0707,-0.067 0.17036,-0.1218 0.22159,-0.1218 0.25907,0 0.96726,-0.26814 0.91813,-0.34763 -0.0344,-0.0556 0.0211,-0.0669 0.14142,-0.0287 0.10933,0.0347 0.19796,0.0222 0.19796,-0.0279 0,-0.0499 0.0904,-0.0671 0.20086,-0.0382 0.14625,0.0382 0.18107,0.0205 0.12806,-0.0653 -0.0536,-0.0868 -0.0207,-0.10125 0.12515,-0.055 0.12247,0.0389 0.19797,0.0225 0.19797,-0.0429 0,-0.0633 0.0747,-0.082 0.18629,-0.0466 0.11159,0.0354 0.1863,0.0167 0.1863,-0.0466 0,-0.0633 0.0747,-0.082 0.1863,-0.0466 0.10246,0.0325 0.18629,0.0202 0.18629,-0.0274 0,-0.0476 0.11102,-0.0653 0.24672,-0.0394 0.16854,0.0322 0.2261,0.0138 0.18166,-0.0581 -0.0458,-0.0741 0.0233,-0.0876 0.23351,-0.0455 0.21179,0.0424 0.27947,0.0288 0.23288,-0.0466 -0.0466,-0.0754 0.0211,-0.0889 0.23287,-0.0466 0.20537,0.0411 0.27885,0.0278 0.23541,-0.0425 -0.0436,-0.0706 0.0429,-0.085 0.27944,-0.0466 0.27005,0.0438 0.32643,0.0294 0.26626,-0.0679 -0.0565,-0.0915 -0.0331,-0.10693 0.0901,-0.0596 0.23526,0.0903 2.12243,-0.14405 1.97998,-0.24585 -0.0682,-0.0487 -0.007,-0.0577 0.15326,-0.0224 0.34238,0.0751 2.34315,-0.0493 2.20141,-0.13691 -0.0589,-0.0364 0.17915,-0.0658 0.52895,-0.0653 0.3498,4.6e-4 0.85606,-0.0318 1.12502,-0.0717 0.34549,-0.0513 0.48903,-0.0415 0.48903,0.0332 0,0.16518 -1.34607,1.63126 -3.62252,3.94551 -1.14706,1.1661 -2.05046,2.12019 -2.00754,2.12019 0.0429,0 -0.61301,0.70211 -1.45762,1.56024 -2.13799,2.17222 -5.63258,5.74804 -7.35058,7.52144 -2.64934,2.73478 -5.90874,6.00836 -5.98235,6.00836 -0.04,0 -0.12319,-0.18863 -0.18485,-0.41917 z"
   style="opacity:1;fill:#999999;fill-opacity:0.21176471;stroke-width:0.09314836" /><path
   id="path1085"
   d="m 214.37239,386.94263 c -0.0719,-0.19212 -0.12226,-0.38074 -0.11186,-0.41917 0.0104,-0.0384 -0.0217,-0.0699 -0.0713,-0.0699 -0.0496,0 -0.0661,-0.0629 -0.0366,-0.13972 0.0295,-0.0768 0.005,-0.13972 -0.055,-0.13972 -0.0597,0 -0.0874,-0.0344 -0.0614,-0.0763 0.0597,-0.0965 -0.26349,-1.15569 -0.33177,-1.0874 -0.0278,0.0278 -0.0511,-0.0658 -0.0518,-0.20792 -0.003,-0.53585 0.004,-4.09202 0.008,-4.42348 0.002,-0.19028 0.024,-0.3264 0.0479,-0.3025 0.0239,0.0239 0.18394,-0.44522 0.35563,-1.0425 0.31423,-1.09317 0.86279,-2.44742 1.53127,-3.78025 0.1988,-0.39637 0.3563,-0.75266 0.35,-0.79177 -0.0265,-0.16454 0.0149,-0.33071 0.069,-0.27668 0.0321,0.0321 0.21387,-0.18099 0.40396,-0.47351 0.66894,-1.02936 2.96794,-3.42385 3.84385,-4.0035 0.1932,-0.12785 0.35127,-0.27128 0.35127,-0.31872 0,-0.0475 0.0419,-0.0604 0.0931,-0.0287 0.0512,0.0317 0.0932,0.006 0.0932,-0.0566 0,-0.0628 0.0274,-0.0868 0.0609,-0.0533 0.0616,0.0616 0.68301,-0.27649 0.78788,-0.42873 0.0314,-0.0455 0.0855,-0.0748 0.12043,-0.0651 0.11628,0.0323 0.61434,-0.20928 0.61434,-0.29793 0,-0.048 0.0419,-0.0614 0.0932,-0.0298 0.0512,0.0317 0.0931,0.0107 0.0931,-0.0466 0,-0.0573 0.0419,-0.0782 0.0932,-0.0466 0.0512,0.0317 0.0932,0.0145 0.0932,-0.0382 0,-0.0526 0.0697,-0.069 0.155,-0.0362 0.11327,0.0435 0.13424,0.0259 0.0779,-0.0653 -0.0564,-0.0912 -0.0354,-0.10879 0.0779,-0.0653 0.0853,0.0327 0.155,0.0202 0.155,-0.0278 0,-0.048 0.0575,-0.0652 0.12771,-0.0383 0.0702,0.027 0.18589,-0.009 0.25699,-0.0803 0.0711,-0.0711 0.1813,-0.11194 0.24488,-0.0907 0.0636,0.0212 0.11561,-0.009 0.11561,-0.0679 0,-0.0585 0.035,-0.0848 0.0778,-0.0583 0.12322,0.0762 0.75958,-0.14959 0.69882,-0.24791 -0.0322,-0.0522 0.0266,-0.0627 0.14322,-0.0257 0.10933,0.0347 0.19796,0.0222 0.19796,-0.0279 0,-0.0499 0.0904,-0.0671 0.20086,-0.0382 0.14625,0.0382 0.18107,0.0205 0.12806,-0.0653 -0.0536,-0.0868 -0.0207,-0.10125 0.12515,-0.055 0.12247,0.0389 0.19797,0.0225 0.19797,-0.0429 0,-0.0633 0.0747,-0.082 0.18629,-0.0466 0.11159,0.0354 0.1863,0.0167 0.1863,-0.0466 0,-0.0633 0.0747,-0.082 0.1863,-0.0466 0.10246,0.0325 0.18629,0.0202 0.18629,-0.0274 0,-0.0476 0.11102,-0.0653 0.24672,-0.0394 0.16854,0.0322 0.2261,0.0138 0.18166,-0.0581 -0.0458,-0.0741 0.0233,-0.0876 0.23351,-0.0455 0.21179,0.0424 0.27947,0.0288 0.23288,-0.0466 -0.0466,-0.0754 0.0211,-0.0889 0.23287,-0.0466 0.20537,0.0411 0.27885,0.0278 0.23541,-0.0425 -0.0436,-0.0706 0.0429,-0.085 0.27944,-0.0466 0.25609,0.0416 0.32486,0.0269 0.27237,-0.058 -0.053,-0.0857 0.0155,-0.0975 0.27843,-0.0482 0.22729,0.0426 0.32834,0.0325 0.2903,-0.029 -0.0377,-0.0611 0.094,-0.0772 0.37309,-0.0458 0.27458,0.031 0.41056,0.0149 0.37404,-0.0442 -0.0364,-0.059 0.11997,-0.0785 0.4285,-0.0536 0.33059,0.0267 0.44447,0.0105 0.35631,-0.0509 -0.0866,-0.0603 0.083,-0.0756 0.51232,-0.0463 0.41007,0.0281 0.59736,0.0126 0.51859,-0.0427 -0.0783,-0.055 0.13896,-0.0698 0.59578,-0.0405 0.52462,0.0337 0.70132,0.0174 0.65341,-0.0601 -0.0467,-0.0756 0.1174,-0.1065 0.56857,-0.10708 0.34883,-4.4e-4 0.85431,-0.0272 1.12327,-0.0596 0.33675,-0.0405 0.48903,-0.0259 0.48903,0.0468 0,0.16921 -1.16151,1.44132 -3.39322,3.71633 -1.14328,1.16546 -2.088,2.16093 -2.09938,2.21216 -0.0114,0.0512 -1.78875,1.89557 -3.94972,4.09853 -2.16096,2.20296 -4.45137,4.5503 -5.0898,5.21631 -1.74023,1.81539 -5.80828,5.91492 -5.86951,5.91492 -0.0295,0 -0.11243,-0.15719 -0.18435,-0.34931 z"
   style="opacity:1;fill:#999999;fill-opacity:0.21176471;stroke-width:0.09314836" /><path
   id="path1087"
   d="m 214.38754,387.05468 c -0.0595,-0.13049 -0.1081,-0.31911 -0.1081,-0.41916 0,-0.10006 -0.0406,-0.18192 -0.0902,-0.18192 -0.0496,0 -0.0635,-0.0697 -0.0307,-0.155 0.0435,-0.11327 0.0259,-0.13424 -0.0653,-0.0779 -0.0894,0.0553 -0.10906,0.0361 -0.0693,-0.0675 0.0642,-0.16731 -0.23988,-1.22233 -0.32715,-1.13506 -0.032,0.032 -0.0567,-1.06755 -0.0548,-2.44348 0.002,-1.37594 0.0349,-2.52267 0.0735,-2.54828 0.0386,-0.0256 0.20072,-0.49183 0.36037,-1.03603 0.30507,-1.03992 0.90372,-2.51309 1.5165,-3.73186 0.2006,-0.39896 0.35957,-0.75738 0.35327,-0.79649 -0.0265,-0.16454 0.0149,-0.33071 0.069,-0.27668 0.0321,0.0321 0.21387,-0.18099 0.40396,-0.47351 0.66894,-1.02936 2.96794,-3.42385 3.84385,-4.0035 0.1932,-0.12785 0.35127,-0.27128 0.35127,-0.31872 0,-0.0475 0.0419,-0.0604 0.0931,-0.0287 0.0512,0.0317 0.0932,0.006 0.0932,-0.0566 0,-0.0628 0.0274,-0.0868 0.0609,-0.0533 0.0722,0.0722 0.69793,-0.29175 0.80648,-0.46912 0.0416,-0.0679 0.11179,-0.10113 0.15603,-0.0738 0.1135,0.0702 0.56472,-0.14933 0.50515,-0.24571 -0.0433,-0.07 0.16077,-0.12166 0.35773,-0.0906 0.0384,0.006 0.0699,-0.0296 0.0699,-0.0792 0,-0.0496 0.0697,-0.0635 0.155,-0.0308 0.11327,0.0435 0.13424,0.0259 0.0779,-0.0653 -0.0564,-0.0912 -0.0354,-0.10879 0.0779,-0.0653 0.0853,0.0327 0.155,0.0202 0.155,-0.0278 0,-0.048 0.0575,-0.0652 0.12771,-0.0383 0.0702,0.027 0.18589,-0.009 0.25699,-0.0803 0.0711,-0.0711 0.18714,-0.10999 0.25785,-0.0864 0.0862,0.0287 0.1039,0.003 0.0538,-0.0782 -0.0529,-0.0856 -0.0318,-0.10457 0.0718,-0.0648 0.19416,0.0745 0.82371,-0.12214 0.7537,-0.23543 -0.0322,-0.0522 0.0266,-0.0627 0.14322,-0.0257 0.10933,0.0347 0.19796,0.0222 0.19796,-0.0279 0,-0.0499 0.0904,-0.0671 0.20086,-0.0382 0.14625,0.0382 0.18107,0.0205 0.12806,-0.0653 -0.0536,-0.0868 -0.0207,-0.10125 0.12515,-0.055 0.12247,0.0389 0.19797,0.0225 0.19797,-0.0429 0,-0.0633 0.0747,-0.082 0.18629,-0.0466 0.11159,0.0354 0.1863,0.0167 0.1863,-0.0466 0,-0.0633 0.0747,-0.082 0.1863,-0.0466 0.10246,0.0325 0.18629,0.0202 0.18629,-0.0274 0,-0.0476 0.11102,-0.0653 0.24672,-0.0394 0.16854,0.0322 0.2261,0.0138 0.18166,-0.0581 -0.0458,-0.0741 0.0233,-0.0876 0.23351,-0.0455 0.21179,0.0424 0.27947,0.0288 0.23288,-0.0466 -0.0466,-0.0754 0.0211,-0.0889 0.23287,-0.0466 0.22207,0.0444 0.28056,0.0306 0.22833,-0.0539 -0.053,-0.0857 0.0155,-0.0976 0.27842,-0.0482 0.26037,0.0488 0.33113,0.0371 0.27945,-0.0466 -0.0517,-0.0836 0.0191,-0.0954 0.27945,-0.0466 0.22729,0.0426 0.32834,0.0325 0.2903,-0.029 -0.0376,-0.0608 0.0986,-0.0795 0.38242,-0.0524 0.32549,0.031 0.40422,0.0164 0.30104,-0.0558 -0.10114,-0.0708 -6.6e-4,-0.0816 0.36389,-0.0389 0.33912,0.0397 0.48402,0.0272 0.44364,-0.0381 -0.0402,-0.0651 0.14634,-0.083 0.5676,-0.0542 0.40161,0.0274 0.58317,0.0116 0.50426,-0.0438 -0.0783,-0.055 0.13896,-0.0698 0.59578,-0.0405 0.52462,0.0337 0.70132,0.0174 0.65341,-0.0601 -0.0467,-0.0756 0.1174,-0.1065 0.56857,-0.10708 0.34883,-4.4e-4 0.85431,-0.0272 1.12327,-0.0596 0.33675,-0.0405 0.48903,-0.0259 0.48903,0.0468 0,0.1681 -1.14646,1.42479 -3.35943,3.68242 -1.12978,1.15258 -2.04848,2.1221 -2.04157,2.1545 0.007,0.0324 -1.6591,1.76389 -3.70225,3.84775 -2.04315,2.08386 -4.36128,4.45951 -5.15138,5.27921 -2.16097,2.24192 -6.08559,6.19437 -6.15076,6.19437 -0.0315,0 -0.10599,-0.10677 -0.16544,-0.23726 z"
   style="opacity:1;fill:#999999;fill-opacity:0.21176471;stroke-width:0.09314836" /><path
   id="path1089"
   d=""
   style="opacity:1;fill:#999999;fill-opacity:0.21176471;stroke-width:0.09314836" /><path
   id="path1091"
   d=""
   style="opacity:1;fill:#999999;fill-opacity:0.21176471;stroke-width:0.09314836" /><path
   id="path1093"
   d="m 172.26953,377.5235 v -11.74883 h 14.64769 14.64768 l 15.04292,-15.04314 15.04292,-15.04313 -2.14122,-2.14274 -2.14122,-2.14274 h 21.42244 21.42245 l -1.76877,1.79311 c -0.97283,0.98621 -8.49728,8.5417 -16.72101,16.78999 -8.22373,8.24829 -17.90328,17.9601 -21.5101,21.58181 -3.60681,3.6217 -6.60115,6.57683 -6.65407,6.56695 -0.0529,-0.01 -0.0981,0.031 -0.10046,0.0907 -0.005,0.14084 -0.13053,0.26392 -0.26815,0.26392 -0.0598,0 -0.10931,0.0419 -0.1101,0.0931 -0.003,0.16443 -0.14834,0.3308 -0.24019,0.27404 -0.049,-0.0303 -0.0775,4.6e-4 -0.0634,0.0683 0.0141,0.0678 -0.0268,0.11288 -0.0908,0.10007 -0.064,-0.0128 -0.10596,0.0145 -0.0932,0.0607 0.0128,0.0462 -1.79236,1.91814 -4.01147,4.15987 l -4.03476,4.07588 0.23896,0.53248 c 0.13143,0.29287 0.23896,0.59964 0.23896,0.6817 0,0.33356 -0.42784,0.46009 -1.79949,0.53219 -0.72654,0.0382 -10.23877,0.0998 -21.13829,0.13696 l -19.81731,0.0675 z m 41.7035,8.18083 -0.29906,-0.88082 0.008,-2.28214 0.008,-2.28213 0.34952,-1.11778 c 0.66322,-2.12098 1.99429,-4.96055 2.79449,-5.9615 0.66333,-0.82973 2.74961,-2.94169 3.35951,-3.40085 1.08034,-0.81334 3.16769,-1.76074 5.24897,-2.3824 0.59681,-0.17826 0.92647,-0.2996 0.73257,-0.26964 -0.74108,0.11451 -2.77134,0.8308 -3.93923,1.38978 -1.73369,0.82979 -2.70173,1.50165 -3.96482,2.75175 -1.29581,1.28249 -1.93932,2.22057 -2.97256,4.33322 -2.00049,4.09038 -2.40658,7.4138 -1.28365,10.50551 0.31653,0.8715 0.28326,0.55679 -0.0426,-0.403 z m 12.52072,-10.59154 c 0.11587,-0.14774 0.11257,-0.15103 -0.0352,-0.0352 -0.0897,0.0703 -0.16301,0.14367 -0.16301,0.16301 0,0.0767 0.0765,0.0273 0.19817,-0.12784 z m 0.77988,-0.76847 c 0.25231,-0.25616 0.43778,-0.46575 0.41217,-0.46575 -0.0256,0 -0.25301,0.20959 -0.50531,0.46575 -0.25231,0.25615 -0.43779,0.46574 -0.41217,0.46574 0.0256,0 0.25301,-0.20959 0.50531,-0.46574 z m 0.8442,-0.86163 0.27358,-0.30273 -0.30273,0.27359 c -0.28219,0.25502 -0.34555,0.33188 -0.27358,0.33188 0.016,0 0.15226,-0.13623 0.30273,-0.30274 z m 4.59923,-4.66719 c 1.4952,-1.52952 2.69995,-2.79954 2.67722,-2.82227 -0.069,-0.069 -0.53097,0.0756 -0.48403,0.15152 0.0582,0.0942 -0.83993,1.08013 -3.43873,3.77502 -1.18572,1.22956 -2.36149,2.4661 -2.61284,2.74788 -0.63779,0.71502 0.67256,-0.59322 3.85838,-3.85215 z m -5.33308,-1.86917 c 1.0014,-0.20887 2.70964,-0.42882 4.77994,-0.61545 1.4833,-0.13371 1.66004,-0.1616 0.79176,-0.12494 -2.03079,0.0858 -5.62468,0.53664 -6.23116,0.78175 -0.29998,0.12124 -0.0428,0.10511 0.65946,-0.0414 z m 7.31824,-0.86076 c -0.064,-0.0258 -0.16884,-0.0258 -0.23288,0 -0.064,0.0258 -0.0116,0.047 0.11644,0.047 0.12808,0 0.18047,-0.0211 0.11644,-0.047 z"
   style="opacity:1;fill:#999999;fill-opacity:0.21176471;stroke-width:0.09314836" /><path
   id="path1095"
   d="m 172.26953,377.5236 v -11.74893 h 14.64769 14.64768 l 15.04292,-15.04314 15.04292,-15.04313 -2.14122,-2.14274 -2.14122,-2.14274 h 21.4124 21.4124 l -1.94064,1.97941 c -6.16031,6.28338 -45.08286,45.22562 -45.15697,45.17981 -0.0489,-0.0302 -0.0619,-0.0113 -0.029,0.0421 0.0746,0.12073 -0.15996,0.3282 -0.26424,0.23373 -0.0419,-0.038 -0.0531,-0.0271 -0.0248,0.0241 0.0283,0.0512 -1.80945,1.9794 -4.08392,4.28483 l -4.1354,4.19167 0.2332,0.52397 c 0.29237,0.65692 0.29158,0.78413 -0.006,0.97915 -0.17965,0.11771 -0.56839,0.17409 -1.56024,0.22627 -0.72654,0.0382 -10.23877,0.0999 -21.13829,0.13706 l -19.81731,0.0676 z m 41.7035,8.18073 -0.29906,-0.88082 0.004,-2.28214 0.004,-2.28213 0.35259,-1.11706 c 0.43236,-1.36981 0.78594,-2.23167 1.62814,-3.9687 0.74892,-1.54464 1.28369,-2.258 2.9466,-3.93066 1.32599,-1.33376 1.7424,-1.65155 3.12225,-2.38276 1.16642,-0.61811 1.33679,-0.77524 0.25383,-0.2341 -2.94617,1.47217 -4.88046,3.40595 -6.4221,6.42042 -2.22148,4.34381 -2.70737,7.8252 -1.54364,11.06015 0.31543,0.87683 0.27818,0.5537 -0.0464,-0.4022 z m 14.66314,-12.73395 c 0.11586,-0.14774 0.11257,-0.15104 -0.0352,-0.0352 -0.0897,0.0703 -0.16301,0.14367 -0.16301,0.16301 0,0.0767 0.0765,0.0273 0.19818,-0.12784 z m 3.89435,-3.96955 c 1.59673,-1.63252 2.88499,-2.98637 2.86279,-3.00857 -0.0668,-0.0668 -0.53016,0.0763 -0.4848,0.14968 0.0619,0.10011 -0.82141,1.07581 -3.3385,3.68783 -2.11571,2.1955 -3.18329,3.34899 -2.32476,2.51186 0.21016,-0.20493 1.68853,-1.70829 3.28527,-3.3408 z m -9.05473,-0.94101 c 0.31112,-0.12642 1.04141,-0.376 1.62287,-0.55463 0.58146,-0.17862 0.98408,-0.32669 0.89471,-0.32903 -0.20993,-0.006 -2.57332,0.77152 -2.92332,0.96112 -0.39383,0.21335 -0.23561,0.18314 0.40574,-0.0775 z m 2.98086,-0.94421 c -0.031,-0.031 -0.1113,-0.0343 -0.17854,-0.007 -0.0743,0.0297 -0.0522,0.0518 0.0563,0.0563 0.0982,0.004 0.15321,-0.018 0.12226,-0.0489 z m 0.92733,-0.16946 c 0.94922,-0.19825 2.61072,-0.42375 4.1279,-0.56023 0.74286,-0.0668 1.13507,-0.1269 0.87158,-0.1335 -0.51918,-0.013 -2.78188,0.20928 -3.75918,0.36932 -0.92323,0.15118 -1.99237,0.36906 -2.0388,0.41549 -0.0706,0.0706 0.13868,0.0467 0.7985,-0.0911 z m 6.01593,-0.76684 c -0.0631,-0.0255 -0.18881,-0.0271 -0.27944,-0.003 -0.0906,0.0236 -0.039,0.0445 0.11466,0.0464 0.15369,0.002 0.22785,-0.0174 0.16478,-0.0429 z"
   style="opacity:1;fill:#999999;fill-opacity:0.21176471;stroke-width:0.09314836" /><path
   id="path1097"
   d="m 172.26953,377.5236 v -11.74893 h 14.64769 14.64768 l 15.04292,-15.04314 15.04292,-15.04313 -2.14122,-2.14274 -2.14122,-2.14274 h 21.42202 21.42201 l -1.20957,1.2337 c -0.66528,0.67853 -7.75136,7.7939 -15.74685,15.81193 -7.9955,8.01803 -18.03036,18.08736 -22.2997,22.37629 -4.26934,4.28892 -7.80455,7.77202 -7.85603,7.74021 -0.0515,-0.0318 -0.0708,-0.0199 -0.0429,0.0264 0.0279,0.0463 -1.87242,2.03338 -4.22287,4.41565 l -4.27355,4.3314 0.23189,0.52397 c 0.29097,0.65745 0.29002,0.7843 -0.007,0.97915 -0.17965,0.11771 -0.56839,0.17409 -1.56024,0.22627 -0.72654,0.0382 -10.23877,0.0999 -21.13829,0.13706 l -19.81731,0.0676 z m 41.65743,8.0411 c -0.24597,-0.72402 -0.25182,-0.793 -0.25239,-2.97675 -5.6e-4,-2.06525 0.0159,-2.29234 0.21605,-2.98075 0.632,-2.17392 1.96078,-5.10808 2.84957,-6.29232 0.6852,-0.91297 2.66413,-2.94791 3.41053,-3.50707 0.28016,-0.20987 0.90759,-0.59481 1.39429,-0.85542 0.99838,-0.53459 1.07348,-0.64409 0.10844,-0.1581 -1.85024,0.93176 -3.91459,2.73965 -5.00784,4.38567 -1.43957,2.16747 -2.63412,5.06606 -3.07098,7.45176 -0.17987,0.98231 -0.2007,2.80669 -0.042,3.67535 0.11894,0.65089 0.55146,2.09345 0.61009,2.03482 0.0198,-0.0198 -0.0773,-0.36954 -0.21579,-0.77719 z m 20.93155,-18.97499 c 0.38848,-0.41042 0.54128,-0.62875 0.44003,-0.62875 -0.0853,0 -0.24914,0.11213 -0.36407,0.24917 -0.64636,0.77069 -1.32978,1.50523 -3.24368,3.48634 -1.16818,1.20921 -2.24117,2.34096 -2.3844,2.51501 -0.25489,0.30971 4.37712,-4.38041 5.55212,-5.62177 z m -12.14668,1.71795 c -0.0287,-0.0287 -0.10384,-6e-5 -0.16703,0.0636 -0.0913,0.092 -0.0806,0.1027 0.0521,0.0521 0.0919,-0.035 0.14356,-0.0871 0.11488,-0.11575 z m 0.4167,-0.11114 c 0.0768,-0.0497 0.0978,-0.0903 0.0466,-0.0903 -0.0512,0 -0.15603,0.0406 -0.23287,0.0903 -0.0769,0.0497 -0.0978,0.0903 -0.0466,0.0903 0.0512,0 0.15602,-0.0406 0.23287,-0.0903 z m 1.11778,-0.41689 c 0.4867,-0.17453 0.83986,-0.3198 0.78479,-0.32281 -0.13126,-0.007 -1.38044,0.41838 -1.59564,0.5436 -0.26366,0.15342 -0.13481,0.11833 0.81085,-0.22079 z m 1.35065,-0.42144 c 0.11743,-0.0505 0.13465,-0.0801 0.0466,-0.0801 -0.0769,0 -0.22356,0.036 -0.32602,0.0801 -0.11743,0.0505 -0.13465,0.0801 -0.0466,0.0801 0.0769,0 0.22356,-0.036 0.32602,-0.0801 z m 0.48709,-0.14943 c -0.0309,-0.0309 -0.11129,-0.0343 -0.17853,-0.007 -0.0743,0.0297 -0.0522,0.0518 0.0563,0.0563 0.0982,0.004 0.15321,-0.018 0.12226,-0.0489 z m 2.14048,-0.41117 c 1.07462,-0.18537 3.40491,-0.45197 4.1929,-0.47969 0.42826,-0.0151 0.43131,-0.0171 0.0806,-0.0531 -0.7809,-0.0802 -5.7318,0.57626 -5.91944,0.78491 -0.0276,0.0307 0.0965,0.027 0.27585,-0.008 0.17931,-0.0352 0.79584,-0.14495 1.37006,-0.24401 z"
   style="opacity:1;fill:#999999;fill-opacity:0.21176471;stroke-width:0.09314836" /><path
   id="path1099"
   d="m 188.89642,258.5925 -59.27549,-59.28247 70.34766,-70.34178 70.34767,-70.341794 59.53627,59.543264 59.53626,59.54326 -70.07504,70.08099 c -38.54127,38.54454 -70.31506,70.08098 -70.60844,70.08098 -0.29337,0 -27.20736,-26.6771 -59.80889,-59.28245 z"
   style="opacity:1;fill:#999999;fill-opacity:0.21176471;stroke-width:1.05385339" /><path
   id="path1101"
   d="m 189.18112,258.82206 -59.59697,-59.50561 70.36606,-70.345 70.36605,-70.344994 59.53726,59.544254 59.53725,59.54425 -70.30634,70.30636 -70.30634,70.30634 z"
   style="opacity:1;fill:#999999;fill-opacity:0.21176471;stroke-width:1.05385339" /><path
   id="path1103"
   d="m 189.20045,258.82188 -59.64676,-59.43277 69.32422,-69.3916 c 38.12832,-38.165389 70.06706,-69.806944 70.97496,-70.314571 1.29424,-0.723625 14.43824,11.86603 60.85978,58.293021 l 59.20902,59.21599 -70.53724,70.53134 -70.53724,70.53134 z"
   style="opacity:1;fill:#999999;fill-opacity:0.21176471;stroke-width:1.05385339" /><path
   id="path1105"
   d="m 233.95189,302.92309 c -22.37343,-21.84424 -86.64981,-85.66162 -96.35221,-95.66416 l -8.35546,-8.61393 66.78021,-66.78642 c 36.72911,-36.73253 67.17648,-66.541504 67.66082,-66.242166 0.48434,0.299338 0.7503,-0.08379 0.59104,-0.851398 -0.15927,-0.767608 0.24675,-1.295914 0.90226,-1.174014 0.65551,0.1219 2.01723,-0.690414 3.02604,-1.805142 1.64648,-1.819331 2.11774,-1.875967 4.60436,-0.553338 1.52358,0.810392 28.4972,27.232815 59.94137,58.716498 l 57.17123,57.24305 -70.3444,70.32523 -70.34438,70.32523 z"
   style="opacity:1;fill:#999999;fill-opacity:0.21176471;stroke-width:1.05385339" /><path
   id="path1107"
   d="m 230.3305,298.97276 c -10.3886,-10.40064 -19.37436,-18.82011 -19.96836,-18.70993 -0.594,0.11018 -1.10881,-0.27391 -1.14403,-0.85353 -0.10663,-1.75459 -1.70522,-3.7556 -2.57224,-3.21975 -0.84156,0.52011 -7.33625,-5.65328 -7.42251,-7.05532 -0.0267,-0.43471 -0.4043,-0.79308 -0.83902,-0.79637 -1.64201,-0.0124 -68.52534,-67.79553 -68.31432,-69.23333 0.30462,-2.07548 132.51994,-134.165043 133.61521,-133.488125 0.48435,0.299343 0.75032,0.153335 0.59106,-0.324463 -0.15927,-0.477797 0.0279,-0.868723 0.41592,-0.868723 0.38801,0 1.86212,-1.086607 3.27579,-2.414682 l 2.57031,-2.414682 9.89737,8.899461 c 5.44355,4.894703 32.30466,31.35442 59.69136,58.799374 l 49.79398,49.8999 -70.35108,70.34521 -70.35108,70.3452 z"
   style="opacity:1;fill:#999999;fill-opacity:0.21176471;stroke-width:1.05385339" /><path
   id="path1109"
   d="m 230.35297,299.22702 c -10.38389,-10.54617 -19.37278,-19.08238 -19.97531,-18.96936 -0.60253,0.11302 -1.12433,-0.26874 -1.15955,-0.84836 -0.10496,-1.72711 -1.6994,-3.7592 -2.54134,-3.23886 -0.43073,0.26622 -17.82359,-16.56135 -38.6508,-37.39459 -20.82721,-20.83325 -37.45638,-37.87862 -36.95371,-37.87862 0.50266,0 0.40132,-0.61766 -0.2252,-1.37258 -0.88058,-1.06103 13.63058,-16.07103 63.93156,-66.1293 35.78888,-35.616193 67.4151,-66.72664 70.2805,-69.134325 l 5.20978,-4.377607 3.18203,2.231504 c 1.75011,1.227328 28.79066,27.702763 60.09011,58.834298 l 56.90808,56.6028 -70.60818,70.42493 -70.60817,70.42493 z"
   style="opacity:1;fill:#999999;fill-opacity:0.21176471;stroke-width:1.05385339" /><path
   id="path1111"
   d="m 230.29526,299.19536 c -10.41563,-10.59252 -19.54464,-19.25913 -20.28668,-19.25913 -0.74204,0 -1.23061,-0.55402 -1.0857,-1.23116 0.1449,-0.67714 -0.86219,-1.81712 -2.23798,-2.5333 -1.37579,-0.71618 -19.00026,-17.77902 -39.16548,-37.91745 -37.06134,-37.0121 -37.48913,-37.53053 -34.89863,-42.2945 1.38257,-2.54258 118.53031,-119.029928 129.02895,-128.301599 7.95606,-7.026224 8.28558,-7.198827 11.00792,-5.765949 1.5435,0.812402 28.67801,27.175414 60.29891,58.584468 l 57.49255,57.10738 -70.60818,70.43518 -70.60817,70.43518 z"
   style="opacity:1;fill:#999999;fill-opacity:0.21176471;stroke-width:1.05385339" /><path
   id="path1113"
   d="m 227.62877,297.03877 c -11.88219,-11.7497 -37.07369,-36.55479 -55.9811,-55.1224 -18.9074,-18.56761 -35.8676,-35.83477 -37.68931,-38.37147 l -3.31221,-4.61217 5.15113,-6.13125 c 6.29928,-7.49788 111.91545,-112.50053 124.79806,-124.07313 8.9591,-8.048058 9.34216,-8.267045 11.98585,-6.852182 1.50204,0.803865 28.63678,27.161757 60.29945,58.573092 l 57.56848,57.11152 -70.60818,70.42055 -70.60817,70.42055 z"
   style="opacity:1;fill:#999999;fill-opacity:0.21176471;stroke-width:1.05385339" /><path
   id="path1115"
   d="m 227.45789,296.79789 c -11.97618,-11.8822 -34.69742,-34.1712 -50.49163,-49.53111 -15.79422,-15.35992 -32.66651,-32.35369 -37.49399,-37.76395 -7.85661,-8.80507 -8.65375,-10.07623 -7.59996,-12.11932 2.49742,-4.84195 131.80658,-132.830445 137.17429,-135.773286 1.49861,-0.821614 2.83001,-0.270732 6.32312,2.616267 2.43363,2.011363 29.32208,28.33131 59.7521,58.488769 l 55.3273,54.83175 -70.60818,70.42744 -70.60817,70.42743 z"
   style="opacity:1;fill:#999999;fill-opacity:0.21176471;stroke-width:1.05385339" /><path
   id="path1117"
   d="m 228.04352,297.32481 c -11.65409,-11.59239 -33.43199,-32.93292 -48.39533,-47.4234 -14.96334,-14.49048 -32.10513,-31.71024 -38.09286,-38.26612 -9.79298,-10.72221 -10.77136,-12.1516 -9.73792,-14.22702 1.39246,-2.79644 114.54426,-115.721705 128.23599,-127.979247 5.34135,-4.78186 10.22344,-8.69429 10.84908,-8.69429 0.62564,0 10.23293,8.883604 21.34951,19.741343 11.11659,10.857737 25.1418,24.491964 31.16713,30.298284 16.81848,16.20712 66.50307,66.15127 66.50307,66.85047 0,0.34125 -31.65512,32.15569 -70.34471,70.69875 l -70.34471,70.0783 z"
   style="opacity:1;fill:#999999;fill-opacity:0.21176471;stroke-width:1.05385339" /><path
   id="path1119"
   d="M 85.885497,388.56122 C 82.263786,386.91047 2.2698373,305.93794 1.0676073,302.70574 0.27977929,300.58766 0.26362877,298.6558 1.014746,296.38262 2.4111961,292.15641 262.56989,31.848768 267.06789,30.177157 c 1.69465,-0.629789 4.32391,-0.872121 5.84281,-0.538515 1.83965,0.404055 26.58289,24.437396 74.11359,71.987188 65.58534,65.61171 71.35194,71.66157 71.35194,74.85677 0,1.91187 -0.52476,4.51198 -1.16615,5.77801 -0.64138,1.26604 -34.19548,35.49827 -74.56467,76.07163 -40.36919,40.57335 -85.96368,86.52477 -101.32108,102.11426 l -27.92258,28.34453 -62.70427,0.36544 c -36.37552,0.21199 -63.589276,-0.0379 -64.811983,-0.59525 z m 129.874243,-37.2128 c 8.26683,-8.25207 15.03059,-15.48257 15.03059,-16.06776 0,-1.38353 -117.16679,-118.57563 -118.55003,-118.57563 -0.57885,0 -19.668107,18.61119 -42.420587,41.3582 l -41.368146,41.3582 33.45313,33.46539 33.45313,33.46539 h 52.685663 52.68566 z m 4.49206,-62.11964 c -15.93953,-15.61671 -29.84012,-28.87087 -30.8902,-29.45368 -1.05009,-0.58281 11.75423,12.44482 28.45404,28.9503 16.6998,16.50548 30.60039,29.75964 30.8902,29.45369 0.28981,-0.30595 -12.51451,-13.33359 -28.45404,-28.95031 z m 70.60818,-10.87333 c 1.36131,-1.44905 2.23799,-2.63463 1.94818,-2.63463 -0.28981,0 -1.64072,1.18558 -3.00204,2.63463 -1.36131,1.44905 -2.23799,2.63463 -1.94818,2.63463 0.28981,0 1.64072,-1.18558 3.00204,-2.63463 z m 14.75394,-14.75395 c 1.36132,-1.44904 2.238,-2.63463 1.94819,-2.63463 -0.28981,0 -1.64073,1.18559 -3.00204,2.63463 -1.36132,1.44905 -2.238,2.63464 -1.94819,2.63464 0.28981,0 1.64073,-1.18559 3.00204,-2.63464 z M 169.66684,240.60043 c 0,-0.18877 -1.30414,-1.49291 -2.8981,-2.8981 l -2.89809,-2.55487 2.55486,2.8981 c 2.38792,2.70871 3.24133,3.38138 3.24133,2.55487 z M 157.0206,227.89952 c 0,-0.21883 -0.82991,-1.04874 -1.84424,-1.84424 -1.67148,-1.31086 -1.70875,-1.27358 -0.3979,0.39789 1.37672,1.75546 2.24214,2.31372 2.24214,1.44635 z m -9.48468,-9.48468 c 0,-0.21883 -0.82991,-1.04874 -1.84425,-1.84424 -1.67147,-1.31086 -1.70874,-1.27358 -0.39789,0.39789 1.37672,1.75546 2.24214,2.31372 2.24214,1.44635 z m -10.43279,-11.80635 c -2.95626,-3.23461 -5.37501,-6.65023 -5.37501,-7.59026 0,-0.94003 1.54126,-3.37562 3.42502,-5.41243 3.33983,-3.61117 3.30317,-3.59931 -1.47421,0.47676 -2.69459,2.29901 -4.82864,4.493 -4.74234,4.87552 0.2335,1.03505 12.14117,13.53154 12.89393,13.53154 0.3562,0 -1.77113,-2.6465 -4.72739,-5.88113 z m 20.4444,-36.27301 c 1.0491,-1.15924 1.67033,-2.1077 1.38052,-2.1077 -0.28981,0 -1.38528,0.94846 -2.43438,2.1077 -1.0491,1.15924 -1.67033,2.10771 -1.38052,2.10771 0.2898,0 1.38527,-0.94847 2.43438,-2.10771 z M 366.73742,153.1306 c 0,-0.18877 -1.30415,-1.49291 -2.8981,-2.8981 l -2.8981,-2.55487 2.55487,2.8981 c 2.38792,2.70871 3.24133,3.38138 3.24133,2.55487 z M 201.28244,126.60057 c 1.96626,-2.02867 3.3379,-3.68849 3.04809,-3.68849 -0.28981,0 -2.13569,1.65982 -4.10194,3.68849 -1.96626,2.02867 -3.33791,3.68848 -3.0481,3.68848 0.28981,0 2.13569,-1.65981 4.10195,-3.68848 z m 11.06546,-11.06546 c 2.85452,-2.8981 4.95292,-5.26927 4.66311,-5.26927 -0.28981,0 -2.86244,2.37117 -5.71696,5.26927 -2.85452,2.89809 -4.95292,5.26926 -4.66311,5.26926 0.2898,0 2.86244,-2.37117 5.71696,-5.26926 z m 106.96612,-9.80488 c 0,-0.17611 -1.65982,-1.92895 -3.68849,-3.89522 -2.02867,-1.966258 -3.68849,-3.268909 -3.68849,-2.894777 0,0.374134 1.54126,2.124787 3.42503,3.890347 3.31762,3.10944 3.95195,3.57486 3.95195,2.89965 z M 264.28536,65.596449 c 3.06235,-2.673944 6.02442,-4.861716 6.58238,-4.861716 0.55796,0 9.67113,8.409303 20.2515,18.68734 10.58037,10.278036 18.99991,18.358855 18.7101,17.957375 -0.28981,-0.40148 -9.26162,-9.49441 -19.93733,-20.206512 L 270.4816,57.696388 252.2905,75.381776 c -10.0051,9.726963 -19.50005,19.302478 -21.09988,21.278922 -1.59983,1.976445 3.93922,-3.11058 12.30902,-11.304498 8.36979,-8.193919 17.72337,-17.085807 20.78572,-19.759751 z"
   style="opacity:1;fill:#999999;fill-opacity:0.21176471;stroke-width:1.05385339" /><path
   id="path1121"
   d="M 85.885497,388.56122 C 82.263786,386.91047 2.2698373,305.93794 1.0676073,302.70574 0.27977929,300.58766 0.26362877,298.6558 1.014746,296.38262 2.4111961,292.15641 262.56989,31.848768 267.06789,30.177157 c 1.69465,-0.629789 4.32391,-0.872121 5.84281,-0.538515 1.83965,0.404055 26.58289,24.437396 74.11359,71.987188 65.58534,65.61171 71.35194,71.66157 71.35194,74.85677 0,1.91187 -0.52476,4.51198 -1.16615,5.77801 -0.64138,1.26604 -34.19548,35.49827 -74.56467,76.07163 -40.36919,40.57335 -85.96368,86.52477 -101.32108,102.11426 l -27.92258,28.34453 -62.70427,0.36544 c -36.37552,0.21199 -63.589276,-0.0379 -64.811983,-0.59525 z m 129.874243,-37.2128 c 8.26683,-8.25207 15.03059,-15.46613 15.03059,-16.03123 0,-1.3717 -117.16132,-118.61216 -118.5321,-118.61216 -0.5887,0 -19.686037,18.61119 -42.438517,41.3582 l -41.368146,41.3582 33.45313,33.46539 33.45313,33.46539 h 52.685663 52.68566 z m 24.98602,-42.01418 c -4.60606,-4.66258 -17.85933,-17.54083 -29.45171,-28.61832 -20.14715,-19.25225 -19.80053,-18.85537 7.8564,8.99568 15.91342,16.0251 29.16669,28.90335 29.45171,28.61831 0.28504,-0.28503 -3.25034,-4.33309 -7.8564,-8.99567 z M 136.56812,206.05252 c -2.662,-2.96079 -4.84,-6.13591 -4.84,-7.05584 0,-0.91993 1.30113,-3.12126 2.89139,-4.89183 1.6594,-1.84755 0.98177,-1.44023 -1.59036,0.95595 l -4.48174,4.17518 6.03624,6.09989 c 3.31993,3.35494 6.21359,6.09989 6.43036,6.09989 0.21676,0 -1.78389,-2.42246 -4.44589,-5.38324 z M 289.29192,76.555272 270.35725,57.598651 254.52574,73.130249 c -8.70733,8.542379 -16.75322,16.717183 -17.87975,18.166231 -1.12653,1.449048 4.96715,-4.143198 13.54153,-12.427215 21.20783,-20.489652 19.27504,-19.544649 26.69777,-13.053408 3.33893,2.919922 11.51674,10.796044 18.17291,17.502493 6.65617,6.706448 12.34204,12.193544 12.63526,12.193544 0.29322,0 -7.98747,-8.53048 -18.40154,-18.956622 z"
   style="opacity:1;fill:#999999;fill-opacity:0.21176471;stroke-width:1.05385339" /><path
   id="path1123"
   d="M 85.885497,388.56122 C 82.263786,386.91047 2.2698373,305.93794 1.0676073,302.70574 0.28021937,300.58885 0.26373258,298.65429 1.0137132,296.38182 1.7513129,294.14687 43.819825,251.41461 133.56741,161.73671 238.25331,57.13209 265.72274,30.225025 268.38867,29.67554 c 2.15104,-0.443357 4.41178,-0.126384 6.32312,0.886549 1.63626,0.86715 34.63014,33.271998 73.31973,72.010771 64.63505,64.71722 70.34471,70.71627 70.34471,73.91 0,1.91172 -0.52476,4.51172 -1.16615,5.77775 -0.64138,1.26604 -34.19548,35.49827 -74.56467,76.07163 -40.36919,40.57335 -85.96368,86.52477 -101.32108,102.11426 l -27.92258,28.34453 -62.70427,0.36544 c -36.37552,0.21199 -63.589276,-0.0379 -64.811983,-0.59525 z m 129.874243,-37.2128 c 8.26683,-8.25207 15.03059,-15.4579 15.03059,-16.01294 0,-1.36578 -117.15859,-118.63045 -118.52314,-118.63045 -0.59364,0 -19.694997,18.61119 -42.447477,41.3582 l -41.368146,41.3582 33.45313,33.46539 33.45313,33.46539 h 52.685663 52.68566 z m 26.03812,-40.96039 c -4.02547,-4.08493 -16.80372,-16.48978 -28.39611,-27.56635 -20.92826,-19.99701 -20.88024,-19.94093 6.80243,7.94377 15.33371,15.44563 28.11196,27.85049 28.39611,27.56635 0.28414,-0.28415 -2.77695,-3.85884 -6.80243,-7.94377 z M 136.0331,205.4912 c -4.94408,-5.61677 -5.21145,-7.10908 -1.94381,-10.84917 1.29864,-1.48641 0.58192,-1.06307 -1.59269,0.94074 l -3.95385,3.64329 5.50863,5.57793 c 6.79798,6.88346 7.71616,7.20188 1.98172,0.68721 z M 264.75356,65.153395 c 2.74024,-2.430264 5.44462,-4.418662 6.00974,-4.418662 0.56512,0 8.16345,6.932483 16.88519,15.405519 8.72176,8.473035 15.85773,15.225311 15.85773,15.005057 0,-0.220253 -7.4745,-7.864008 -16.61,-16.98612 L 270.28623,57.573531 252.38252,75.750049 c -11.9194,12.101038 -13.6767,14.106285 -5.25746,5.999263 6.95543,-6.69749 14.88826,-14.165653 17.6285,-16.595917 z"
   style="opacity:1;fill:#999999;fill-opacity:0.21176471;stroke-width:1.05385339" /><path
   id="path1125"
   d="M 85.885497,388.56397 C 82.258669,386.90616 2.2688125,305.93519 1.0676073,302.70574 0.28021937,300.58885 0.26373258,298.65429 1.0137132,296.38182 1.7513129,294.14687 43.819825,251.41461 133.56741,161.73671 238.25331,57.13209 265.72274,30.225025 268.38867,29.67554 c 2.15104,-0.443357 4.41178,-0.126384 6.32312,0.886549 1.63626,0.86715 34.63014,33.271998 73.31973,72.010771 66.42658,66.51102 70.34264,70.63856 70.30736,74.10418 -0.0206,2.01852 -0.62366,4.72521 -1.34028,6.01485 -0.71661,1.28963 -34.01475,35.2143 -73.99585,75.38814 -39.98111,40.17385 -85.49723,86.03334 -101.14696,101.91 l -28.45404,28.86665 -62.70427,0.33535 c -36.43582,0.19487 -63.58725,-0.0683 -64.811983,-0.62806 z M 215.75974,351.34842 c 8.26683,-8.25207 15.03059,-15.4579 15.03059,-16.01294 0,-1.36578 -117.15859,-118.63045 -118.52314,-118.63045 -0.59364,0 -19.694997,18.61119 -42.447477,41.3582 l -41.368146,41.3582 33.45313,33.46539 33.45313,33.46539 h 52.685663 52.68566 z m 25.51213,-41.48724 c -4.3158,-4.37367 -15.90888,-15.59225 -25.76241,-24.93017 -16.60692,-15.73791 -16.07159,-15.11923 7.32896,8.47008 13.88445,13.99645 25.47754,25.21503 25.76241,24.93016 0.28487,-0.28488 -3.01316,-4.0964 -7.32896,-8.47007 z M 136.0331,205.4912 c -4.76934,-5.41825 -5.16895,-7.08097 -2.47721,-10.30718 1.00527,-1.20488 0.28634,-0.79057 -1.59761,0.9207 l -3.42537,3.11138 5.51355,5.58291 c 6.80237,6.88792 7.72255,7.20854 1.98664,0.69219 z M 302.45236,89.966412 c 0,-0.151918 -7.23802,-7.502942 -16.0845,-16.335607 l -16.08451,-16.059392 -14.7407,14.942896 -14.74071,14.942896 12.64624,-11.92098 c 17.83266,-16.809963 16.13497,-16.105687 23.43711,-9.722667 3.33893,2.918657 10.32901,9.609195 15.53349,14.86786 8.77786,8.869229 10.03358,10.031264 10.03358,9.284994 z"
   style="opacity:1;fill:#999999;fill-opacity:0.21176471;stroke-width:1.05385339" /><path
   id="path1127"
   d="M 85.885497,388.56397 C 82.258669,386.90616 2.2688125,305.93519 1.0676073,302.70574 0.28021937,300.58885 0.26373258,298.65429 1.0137132,296.38182 1.7513129,294.14687 43.819825,251.41461 133.56741,161.73671 238.25331,57.13209 265.72274,30.225025 268.38867,29.67554 c 2.15104,-0.443357 4.41178,-0.126384 6.32312,0.886549 1.63626,0.86715 34.63014,33.271998 73.31973,72.010771 66.42658,66.51102 70.34264,70.63856 70.30736,74.10418 -0.0206,2.01852 -0.63643,4.74907 -1.36865,6.06786 -0.73221,1.3188 -32.60765,33.80928 -70.8343,72.20107 -38.22663,38.39179 -83.73,84.22675 -101.11858,101.85546 l -31.6156,32.0522 -62.70427,0.33688 c -36.43939,0.19577 -63.587129,-0.0667 -64.811983,-0.62654 z M 215.75974,351.34842 c 8.26683,-8.25207 15.03059,-15.4579 15.03059,-16.01294 0,-1.36578 -117.15859,-118.63045 -118.52314,-118.63045 -0.59364,0 -19.694997,18.61119 -42.447477,41.3582 l -41.368146,41.3582 33.45313,33.46539 33.45313,33.46539 h 52.685663 52.68566 z m 23.93353,-43.06793 c -5.18643,-5.24065 -16.06914,-15.74635 -24.18381,-23.34599 -11.85923,-11.10655 -10.11121,-9.13498 8.90947,10.04885 13.01487,13.12651 23.89759,23.63221 24.1838,23.34599 0.28622,-0.28621 -3.72304,-4.80819 -8.90946,-10.04885 z M 136.0331,205.4912 c -4.76934,-5.41825 -5.16895,-7.08097 -2.47721,-10.30718 1.00527,-1.20488 0.28634,-0.79057 -1.59761,0.9207 l -3.42537,3.11138 5.51355,5.58291 c 6.80237,6.88792 7.72255,7.20854 1.98664,0.69219 z M 302.45236,89.966412 c 0,-0.151918 -7.23802,-7.502942 -16.0845,-16.335607 l -16.08451,-16.059392 -14.7407,14.942896 -14.74071,14.942896 12.64624,-11.92098 c 17.83266,-16.809963 16.13497,-16.105687 23.43711,-9.722667 3.33893,2.918657 10.32901,9.609195 15.53349,14.86786 8.77786,8.869229 10.03358,10.031264 10.03358,9.284994 z"
   style="opacity:1;fill:#999999;fill-opacity:0.21176471;stroke-width:1.05385339" /><path
   id="path1129"
   d="M 85.885497,388.56397 C 82.258669,386.90616 2.2688125,305.93519 1.0676073,302.70574 0.28021937,300.58885 0.26373258,298.65429 1.0137132,296.38182 1.7513129,294.14687 43.819825,251.41461 133.56741,161.73671 238.25331,57.13209 265.72274,30.225025 268.38867,29.67554 c 2.15104,-0.443357 4.41178,-0.126384 6.32312,0.886549 1.63626,0.86715 34.63014,33.271998 73.31973,72.010771 66.42658,66.51102 70.34264,70.63856 70.30736,74.10418 -0.0206,2.01852 -0.62983,4.73674 -1.35399,6.04047 -0.72415,1.30373 -32.59959,33.80062 -70.83429,72.21529 -38.2347,38.41467 -83.74467,84.26195 -101.13325,101.88285 l -31.6156,32.03798 -62.70427,0.33688 c -36.43939,0.19577 -63.587129,-0.0667 -64.811983,-0.62654 z m 130.060963,-37.40255 15.16369,-15.19078 -3.24493,-4.04205 c -4.7427,-5.90773 -114.48298,-115.22356 -115.67096,-115.22356 -0.55353,0 -19.622067,18.61119 -42.374547,41.3582 l -41.368146,41.3582 33.45313,33.46539 33.45313,33.46539 h 52.712483 52.71247 z m 22.69404,-43.93474 c -5.76664,-5.81905 -16.17561,-15.84946 -23.13104,-22.28981 -8.97478,-8.31015 -6.08228,-5.08709 9.96312,11.10178 12.43514,12.54632 22.84411,22.57674 23.13104,22.28981 0.28692,-0.28693 -4.19648,-5.28273 -9.96312,-11.10178 z M 135.49872,204.92295 c -4.00375,-4.67749 -4.58423,-6.88553 -2.45329,-9.33189 0.72453,-0.83177 0.003,-0.36029 -1.60306,1.04772 l -2.92038,2.56002 4.98847,5.06463 c 6.14207,6.23584 7.00694,6.52272 1.98826,0.65952 z M 286.11764,73.380973 c -8.6798,-8.69429 -15.79422,-15.8078 -15.80983,-15.8078 -0.0156,0 -6.18658,6.246725 -13.71328,13.881611 L 242.90965,85.336397 255.02896,74.00364 c 6.66562,-6.233017 12.92203,-11.770526 13.90314,-12.305578 2.14754,-1.17117 9.32372,4.587688 22.95846,18.424086 4.91397,4.986645 9.17614,9.066625 9.47151,9.066625 0.29535,0 -6.56464,-7.11351 -15.24443,-15.8078 z"
   style="opacity:1;fill:#999999;fill-opacity:0.21176471;stroke-width:1.05385339" /><path
   id="path1131"
   d="M 85.885497,388.55876 C 82.268358,386.91432 2.270757,305.94042 1.0676073,302.70574 0.28021937,300.58885 0.26373258,298.65429 1.0137132,296.38182 2.5326827,291.7793 263.88742,30.571419 267.95912,29.586413 c 1.60521,-0.388323 4.23601,-0.160335 5.84623,0.506641 1.61022,0.666975 34.7974,33.095406 73.74928,72.063176 66.8939,66.92119 70.81953,71.05405 70.78425,74.52068 -0.0206,2.0186 -0.63152,4.74002 -1.35774,6.04761 -0.72622,1.30758 -30.94183,32.14308 -67.1458,68.52335 -36.20398,36.38025 -81.71225,82.23183 -101.1295,101.89238 l -35.30409,35.74646 -62.70427,0.31513 c -36.13837,0.18163 -63.597249,-0.0908 -64.811983,-0.64308 z M 215.75974,351.34842 c 8.26683,-8.25207 15.03059,-15.45594 15.03059,-16.00859 0,-1.18048 -106.70412,-108.3631 -114.12491,-114.63667 l -5.05108,-4.27022 -41.600064,41.47556 -41.600064,41.47556 33.471807,33.48407 33.471808,33.48408 h 52.685663 52.68566 z m 23.96637,-43.03489 c -5.20448,-5.25879 -15.15351,-14.83047 -22.10894,-21.2704 -9.70202,-8.98296 -7.7415,-6.75692 8.42094,9.56143 11.58696,11.69872 21.53598,21.27039 22.10895,21.27039 0.57297,0 -3.21646,-4.30264 -8.42095,-9.56142 z M 134.9664,204.34561 c -3.50457,-4.25167 -3.97516,-6.3963 -1.92097,-8.75455 0.72453,-0.83177 0.004,-0.36111 -1.60114,1.0459 l -2.91845,2.55822 4.45519,4.53951 c 5.4778,5.58147 6.28803,5.83078 1.98537,0.61092 z M 299.2908,86.803485 c 0,-0.152671 -6.52721,-6.792299 -14.50491,-14.75473 l -14.5049,-14.477147 -13.68568,13.887657 -13.68566,13.887658 12.08997,-11.340462 c 6.64948,-6.237254 12.9059,-11.777131 13.90314,-12.310841 2.13662,-1.143479 9.34214,4.563935 21.93084,17.371172 7.29971,7.426433 8.4572,8.485309 8.4572,7.736693 z"
   style="opacity:1;fill:#999999;fill-opacity:0.21176471;stroke-width:1.05385339" /><path
   id="path1133"
   d="M 85.885497,388.556 C 82.273467,386.91862 2.2717892,305.94319 1.0676073,302.70574 0.28021937,300.58885 0.26373258,298.65429 1.0137132,296.38182 2.5326827,291.7793 263.88742,30.571419 267.95912,29.586413 c 1.60521,-0.388323 4.23601,-0.160335 5.84623,0.506641 1.61022,0.666975 34.7974,33.095406 73.74928,72.063176 66.8939,66.92119 70.81953,71.05405 70.78425,74.52068 -0.0206,2.0186 -0.63877,4.75358 -1.37386,6.07773 -0.73509,1.32415 -28.34241,29.54553 -61.34961,62.71417 -33.00721,33.16864 -78.50822,79.01001 -101.11338,101.8697 l -41.10028,41.56308 -62.70427,0.30493 C 114.71723,389.3815 87.094917,389.1043 85.885497,388.556 Z m 130.124013,-37.45774 15.22674,-15.25396 -3.08904,-3.45194 C 221.76188,325.2569 123.56793,226.88316 117.72328,221.76624 l -6.10093,-5.34128 -41.604073,41.47955 -41.604065,41.47955 33.471807,33.48407 33.471808,33.48408 h 52.712483 52.71247 z m 21.57713,-44.92534 c -5.76663,-5.819 -14.27867,-13.95053 -18.91562,-18.07005 -4.67026,-4.14912 -0.22668,0.80324 9.96208,11.10272 10.11609,10.22604 18.62812,18.35756 18.91562,18.07006 0.2875,-0.2875 -4.19543,-5.28373 -9.96208,-11.10273 z M 134.8033,204.10898 c -2.30554,-2.86893 -3.16375,-4.86697 -2.75759,-6.42012 0.56934,-2.17715 0.51843,-2.19044 -1.47605,-0.38545 -2.03308,1.83991 -1.99515,1.94137 2.40042,6.42013 5.5594,5.66461 6.18064,5.79523 1.83322,0.38544 z M 299.2908,86.803485 c 0,-0.152671 -6.52783,-6.792922 -14.50629,-14.756115 l -14.5063,-14.478532 -11.57657,11.775901 -11.57658,11.7759 10.01161,-9.22133 c 5.50638,-5.071732 10.81432,-9.660696 11.79543,-10.197699 2.10324,-1.151194 9.34464,4.590347 21.9015,17.365182 7.29971,7.426433 8.4572,8.485309 8.4572,7.736693 z"
   style="opacity:1;fill:#999999;fill-opacity:0.21176471;stroke-width:1.05385339" /><path
   id="path1135"
   d="m 232.89804,303.64793 c -4.90117,-4.92676 -8.43699,-8.95775 -7.85737,-8.95775 0.57962,0 5.06391,4.03099 9.96508,8.95775 4.90117,4.92677 8.43698,8.95776 7.85736,8.95776 -0.57962,0 -5.0639,-4.03099 -9.96507,-8.95776 z"
   style="opacity:1;fill:#999999;fill-opacity:0.21176471;stroke-width:1.05385339" /><path
   id="path1137"
   d="M 85.885497,388.56397 C 82.258669,386.90616 2.2688125,305.93519 1.0676073,302.70574 0.28021937,300.58885 0.26373258,298.65429 1.0137132,296.38182 2.5326827,291.7793 263.88742,30.571419 267.95912,29.586413 c 1.60521,-0.388323 4.23014,-0.162766 5.83318,0.501239 1.60305,0.664004 34.56599,32.861278 73.25098,71.549498 75.87724,75.88358 73.83535,73.5355 70.11729,80.63166 -0.79317,1.51383 -31.29667,32.76307 -67.78555,69.44275 -36.48887,36.67967 -82.01013,82.54132 -101.15834,101.91477 l -34.81493,35.22444 -62.70427,0.33831 c -36.44276,0.19662 -63.587017,-0.0652 -64.811983,-0.62511 z m 130.060963,-37.40255 15.16369,-15.19078 -3.2408,-4.04205 C 223.26253,326.1828 113.36246,216.70503 112.20133,216.70503 c -0.52873,0 -19.591641,18.60828 -42.362024,41.35172 l -41.400697,41.35172 33.459609,33.47187 33.459609,33.47187 h 52.712483 52.71247 z m 22.69295,-43.93473 c -5.18642,-5.24062 -14.64643,-14.32285 -21.02224,-20.18272 -8.30159,-7.62982 -5.77258,-4.777 8.90879,10.04947 11.27565,11.38708 20.73566,20.46931 21.02224,20.18272 0.2866,-0.28658 -3.72236,-4.80885 -8.90879,-10.04947 z M 134.8033,204.10898 c -2.30554,-2.86893 -3.16375,-4.86697 -2.75759,-6.42012 0.56934,-2.17715 0.51843,-2.19044 -1.47605,-0.38545 -2.03308,1.83991 -1.99515,1.94137 2.40042,6.42013 5.5594,5.66461 6.18064,5.79523 1.83322,0.38544 z M 299.2908,86.803485 c 0,-0.152671 -6.52783,-6.792922 -14.50629,-14.756115 l -14.5063,-14.478532 -11.57657,11.775901 -11.57658,11.7759 10.00481,-9.183441 c 5.50264,-5.050892 11.06823,-9.450342 12.36797,-9.776556 2.77678,-0.696927 7.89743,3.341389 20.81049,16.411853 7.79572,7.890749 8.98247,8.978219 8.98247,8.23099 z"
   style="opacity:1;fill:#999999;fill-opacity:0.21176471;stroke-width:1.05385339" /><path
   id="path1139"
   d="M 86.93935,388.85648 C 83.778648,388.03868 3.2225637,307.44186 1.4202105,303.2941 0.25468672,300.61188 0.15353925,298.98817 0.99344056,296.44325 2.5310211,291.78434 263.83868,30.583209 267.95912,29.586413 c 1.60521,-0.388323 4.23014,-0.162766 5.83318,0.501239 1.60305,0.664004 34.56599,32.861278 73.25098,71.549498 75.86638,75.87271 73.8347,73.53672 70.12116,80.62427 -0.79105,1.50978 -30.1074,31.57342 -65.14746,66.80812 -35.04006,35.23469 -80.56305,81.10683 -101.16222,101.9381 l -37.45301,37.87502 -62.17734,0.25959 c -34.19755,0.14276 -63.125821,0.0141 -64.28506,-0.28577 z m 129.07016,-37.75822 15.22674,-15.25396 -3.08904,-3.45194 C 221.75256,325.24649 123.56361,226.87938 117.70977,221.75454 l -6.11446,-5.35299 -41.584573,41.49723 -41.58458,41.49723 33.465835,33.4781 33.465835,33.4781 h 52.712483 52.71247 z m 20.55905,-45.94419 c -6.36593,-6.41687 -14.89406,-14.5627 -18.95139,-18.10183 -4.05734,-3.53914 0.67977,1.71102 10.52691,11.66703 9.84713,9.95601 18.37526,18.10183 18.95138,18.10183 0.57613,0 -4.16097,-5.25016 -10.5269,-11.66703 z M 134.29291,203.53398 c -1.82204,-2.38882 -2.60859,-4.46314 -2.23463,-5.8932 0.55649,-2.12799 0.5034,-2.14012 -1.48619,-0.33958 -2.03203,1.83897 -2.00373,1.92822 1.86796,5.8932 4.89224,5.0101 5.50024,5.12154 1.85286,0.33958 z M 299.2908,86.803485 c 0,-0.152671 -6.52783,-6.792922 -14.50629,-14.756115 l -14.5063,-14.478532 -11.57657,11.775901 -11.57658,11.7759 10.00481,-9.183441 c 5.50264,-5.050892 11.06823,-9.450342 12.36797,-9.776556 2.77678,-0.696927 7.89743,3.341389 20.81049,16.411853 7.79572,7.890749 8.98247,8.978219 8.98247,8.23099 z"
   style="opacity:1;fill:#999999;fill-opacity:0.21176471;stroke-width:1.05385339" /><path
   id="path1141"
   d="M 85.885497,388.55331 C 82.278399,386.92276 2.2727903,305.94589 1.0676073,302.70574 0.28021937,300.58885 0.26373258,298.65429 1.0137132,296.38182 2.5326827,291.7793 263.88742,30.571419 267.95912,29.586413 c 1.60521,-0.388323 4.23014,-0.162766 5.83318,0.501239 1.60305,0.664004 34.56599,32.861278 73.25098,71.549498 75.85979,75.86613 73.83431,73.53747 70.12351,80.6198 -0.78976,1.5073 -28.44475,29.91114 -61.45552,63.11963 -33.01078,33.20847 -78.53483,79.09028 -101.16455,101.95955 l -41.14497,41.58048 -62.70427,0.29474 c -35.82525,0.1684 -63.607773,-0.11368 -64.811983,-0.65804 z m 130.129023,-37.46007 15.23174,-15.25897 -3.63672,-3.97385 c -7.97531,-8.71465 -102.14272,-103.071 -108.82971,-109.04807 l -7.15208,-6.39279 -41.606769,41.48225 -41.606769,41.48225 33.471807,33.48407 33.471808,33.48408 h 52.712483 52.71247 z m 21.07812,-45.41363 c -5.49494,-5.5482 -13.31043,-12.98292 -17.36777,-16.5216 -4.05733,-3.53868 -0.032,1.00075 8.94501,10.08763 8.97709,9.08688 16.79258,16.52161 17.36776,16.52161 0.57518,0 -3.45006,-4.53944 -8.945,-10.08764 z M 134.29291,203.53398 c -1.79592,-2.35459 -2.6067,-4.47035 -2.24424,-5.85642 0.46568,-1.78076 0.29877,-1.94705 -0.93039,-0.92694 -2.21334,1.83692 -1.86463,3.14094 1.87043,6.99453 4.35406,4.49227 4.8326,4.41479 1.3042,-0.21117 z M 299.2908,86.803485 c 0,-0.152671 -6.52824,-6.793328 -14.5072,-14.757016 l -14.50719,-14.479434 -10.52182,10.721667 -10.52182,10.721666 8.95775,-8.117304 c 4.92677,-4.464517 10.01812,-8.389156 11.31412,-8.72142 2.76929,-0.709983 7.87768,3.317274 20.80369,16.400851 7.79572,7.890749 8.98247,8.978219 8.98247,8.23099 z"
   style="opacity:1;fill:#999999;fill-opacity:0.21176471;stroke-width:1.05385339" /><path
   id="path1143"
   d="M 86.93935,388.84867 C 83.787203,388.04476 3.2263159,307.45049 1.4202105,303.2941 0.25468672,300.61188 0.15353925,298.98817 0.99344056,296.44325 2.4990188,291.8813 263.83156,30.584558 267.86261,29.610637 c 1.55211,-0.375 3.92328,-0.35408 5.26926,0.04649 1.34598,0.40057 34.33929,32.567798 73.31848,71.482733 74.08452,73.9624 73.39954,73.19568 71.3877,79.906 -0.40611,1.35454 -25.70014,27.59719 -56.20898,58.31702 -30.50882,30.71982 -76.34085,76.93894 -101.84895,102.70917 l -46.37837,46.85494 -62.17734,0.22961 c -34.19755,0.12629 -63.125821,-0.0123 -64.28506,-0.30793 z m 129.08579,-37.76607 15.24237,-15.26961 -5.75533,-6.07092 C 212.22394,315.72518 125.34864,228.69324 118.77983,222.81728 l -7.15208,-6.39772 -41.606769,41.48225 -41.606769,41.48225 33.471807,33.48407 33.471808,33.48408 h 52.712483 52.71247 z m 21.0675,-45.40293 c -5.49494,-5.54817 -12.8362,-12.50728 -16.31391,-15.46471 -3.47772,-2.95742 0.54714,1.58199 8.94412,10.08758 8.39698,8.50558 15.73824,15.46471 16.31391,15.46471 0.57567,0 -3.44918,-4.53941 -8.94412,-10.08758 z M 134.29291,203.53398 c -1.79592,-2.35459 -2.6067,-4.47035 -2.24424,-5.85642 0.46568,-1.78076 0.29877,-1.94705 -0.93039,-0.92694 -2.21334,1.83692 -1.86463,3.14094 1.87043,6.99453 4.35406,4.49227 4.8326,4.41479 1.3042,-0.21117 z M 298.23695,85.749108 c 0,-0.152958 -6.29146,-6.556623 -13.98104,-14.230367 l -13.98104,-13.95226 -9.99413,10.195211 -9.99412,10.195211 8.43083,-7.582615 c 4.63695,-4.170438 9.49119,-7.858048 10.78719,-8.194689 2.74309,-0.712527 7.88903,3.314142 20.2751,15.865179 7.30376,7.401013 8.45721,8.451789 8.45721,7.70433 z"
   style="opacity:1;fill:#999999;fill-opacity:0.21176471;stroke-width:1.05385339" /><path
   id="path1145"
   d="M 85.885497,388.53097 C 82.318677,386.95643 2.2811367,305.96833 1.0676073,302.70574 0.28021937,300.58885 0.26373258,298.65429 1.0137132,296.38182 2.5006837,291.87625 263.88026,30.57279 267.86261,29.610637 c 1.55211,-0.375 3.92328,-0.35408 5.26926,0.04649 1.34598,0.40057 34.33929,32.567798 73.31848,71.482733 74.08521,73.96308 73.40029,73.19642 71.38714,79.906 -0.40642,1.35454 -24.51432,26.41161 -53.57314,55.68238 -29.05881,29.27078 -74.89058,75.5086 -101.84839,102.75071 l -49.01421,49.5311 -62.70427,0.22568 c -34.53387,0.12429 -63.651181,-0.19233 -64.811983,-0.70476 z M 215.96869,351.13915 231.1546,335.9261 219.45412,323.4755 C 208.65542,311.98451 126.38403,229.89372 116.20035,220.4484 l -4.46232,-4.13878 -41.66191,41.53722 -41.661908,41.53722 33.471807,33.48407 33.471808,33.48408 h 52.712483 52.71247 z m 21.12149,-45.46066 c -4.91396,-4.96921 -11.77988,-11.44447 -15.2576,-14.3895 -3.47772,-2.94502 0.11355,1.12069 7.98059,9.03491 7.86704,7.91422 14.73295,14.38949 15.2576,14.38949 0.52464,0 -3.06661,-4.06571 -7.98059,-9.0349 z M 134.52375,203.79533 c -1.4195,-1.88377 -2.79294,-4.3735 -3.0521,-5.53273 -0.44154,-1.97506 -0.5234,-1.98728 -1.30062,-0.19401 -0.61337,1.41518 0.0843,2.85648 2.67826,5.53273 4.4044,4.54419 5.00493,4.61376 1.67446,0.19401 z M 284.01274,71.276084 270.34587,57.578809 l -9.23923,9.196427 c -5.08159,5.058034 -9.23924,9.364157 -9.23924,9.569161 0,0.205004 3.4382,-2.756683 7.64044,-6.581529 4.20224,-3.824845 8.69637,-7.232397 9.98698,-7.572337 2.86206,-0.753863 6.90972,2.334922 18.7058,14.27448 4.62336,4.679591 8.6475,8.508349 8.94254,8.508349 0.29505,0 -5.61364,-6.163774 -13.13042,-13.697276 z"
   style="opacity:1;fill:#999999;fill-opacity:0.21176471;stroke-width:1.05385339" /><path
   id="path1147"
   d="M 85.885497,388.51463 C 82.347229,386.98013 2.2872442,305.98475 1.0676073,302.70574 0.28021937,300.58885 0.26373258,298.65429 1.0137132,296.38182 2.5326827,291.7793 263.88742,30.571419 267.95912,29.586413 c 1.60521,-0.388323 4.23014,-0.162766 5.83318,0.501239 1.60305,0.664004 34.56599,32.861278 73.25098,71.549498 75.88673,75.89306 73.83591,73.53441 70.1139,80.63813 -0.79504,1.51739 -23.94853,25.41601 -51.45219,53.10801 -27.50366,27.69203 -73.02339,73.5866 -101.15495,101.98795 l -51.14829,51.63881 -62.70427,0.20933 c -34.48735,0.11512 -63.652744,-0.20201 -64.811983,-0.70475 z M 215.9694,351.13843 231.15604,335.92466 218.41758,322.42093 C 207.09559,310.41877 127.55692,231.09698 116.17715,220.45928 l -4.43912,-4.14966 -41.66191,41.53722 -41.661908,41.53722 33.471807,33.48407 33.471808,33.48408 h 52.712483 52.71247 z m 20.59515,-45.98596 c -5.20448,-5.25851 -11.35964,-11.01592 -13.67812,-12.79427 -2.31847,-1.77833 1.51387,2.52409 8.51632,9.56093 7.00245,7.03684 13.15761,12.79426 13.67812,12.79426 0.52052,0 -3.31183,-4.30242 -8.51632,-9.56092 z M 134.03064,203.2684 c -1.13104,-1.59395 -2.27552,-3.84657 -2.54331,-5.0058 -0.45527,-1.97087 -0.54057,-1.98388 -1.31379,-0.20055 -0.59763,1.37834 -0.004,2.76632 2.14177,5.0058 3.72083,3.88369 4.3838,3.96121 1.71533,0.20055 z M 296.12924,83.640229 c 0,-0.153602 -5.81803,-6.083341 -12.92896,-13.177197 l -12.92896,-12.897919 -8.93849,9.115782 -8.9385,9.115783 8.1621,-7.004046 c 4.48915,-3.852226 9.1143,-7.004046 10.27808,-7.004046 1.26254,0 6.68404,4.448756 13.4419,11.030111 10.77349,10.492123 11.85283,11.477553 11.85283,10.821532 z"
   style="opacity:1;fill:#999999;fill-opacity:0.21176471;stroke-width:1.05385339" /><path
   id="path1149"
   d="M 85.885497,388.50196 C 82.368831,386.99796 2.291975,305.99747 1.0676073,302.70574 0.28021937,300.58885 0.26373258,298.65429 1.0137132,296.38182 2.5326827,291.7793 263.88742,30.571419 267.95912,29.586413 c 1.60521,-0.388323 4.23014,-0.162766 5.83318,0.501239 1.60305,0.664004 34.56599,32.861278 73.25098,71.549498 75.83117,75.8375 73.84081,73.55013 70.12887,80.59384 -1.38328,2.62489 -43.32804,45.20755 -152.55673,154.87679 l -52.21858,52.4292 -62.20182,-0.0668 c -34.211,-0.0367 -63.150284,-0.47244 -64.309523,-0.96822 z m 130.095063,-37.3747 15.19779,-15.22496 -7.83445,-8.35092 c -7.98399,-8.51034 -99.07215,-99.53967 -107.16132,-107.0921 l -4.44455,-4.14966 -41.66191,41.53722 -41.661908,41.53722 33.471807,33.48407 33.471808,33.48408 h 52.712483 52.71247 z m 22.1563,-44.39842 c -3.75078,-3.81188 -9.665,-9.33762 -13.14272,-12.27941 -3.81934,-3.23078 -1.48902,-0.48642 5.88509,6.93069 6.71452,6.75368 12.62874,12.27942 13.14272,12.27942 0.51398,0 -2.13431,-3.11882 -5.88509,-6.9307 z M 134.03064,203.2684 c -1.13104,-1.59395 -2.27552,-3.84657 -2.54331,-5.0058 -0.45527,-1.97087 -0.54057,-1.98388 -1.31379,-0.20055 -0.59763,1.37834 -0.004,2.76632 2.14177,5.0058 3.72083,3.88369 4.3838,3.96121 1.71533,0.20055 z M 292.96768,80.476511 c 0,-0.15479 -5.10713,-5.372729 -11.34918,-11.595419 l -11.34916,-11.313983 -8.93751,9.14095 -8.9375,9.140949 7.37697,-6.537199 c 4.05734,-3.595459 8.43291,-6.807683 9.72352,-7.138275 2.73994,-0.701848 7.03573,2.452026 16.58983,12.179883 5.82925,5.935277 6.88303,6.872707 6.88303,6.123094 z"
   style="opacity:1;fill:#999999;fill-opacity:0.21176471;stroke-width:1.05385339" /><path
   id="path1151"
   d="M 85.885497,388.50196 C 82.368831,386.99796 2.291975,305.99747 1.0676073,302.70574 0.28021937,300.58885 0.26373258,298.65429 1.0137132,296.38182 2.5006837,291.87625 263.88026,30.57279 267.86261,29.610637 c 1.55211,-0.375 3.92328,-0.347796 5.26926,0.06045 2.44266,0.740882 28.20737,26.025121 104.73556,102.782373 36.72623,36.83616 40.5088,40.95104 40.5088,44.06766 0,1.89068 -0.52609,4.47346 -1.16909,5.73949 -1.1942,2.35133 -36.86976,38.56725 -144.23175,146.41634 l -60.58517,60.86003 -62.19851,-0.0668 c -34.20917,-0.0367 -63.146974,-0.47244 -64.306213,-0.96822 z m 130.127203,-37.40689 15.22991,-15.25713 -11.54444,-11.8796 c -18.20195,-18.73036 -85.05203,-85.61899 -97.08375,-97.13973 l -10.89947,-10.43658 -41.656089,41.4953 -41.656088,41.4953 33.477527,33.48978 33.477527,33.4898 h 52.712483 52.71247 z m 20.56646,-45.61489 c -4.64101,-4.48545 -9.85759,-9.28721 -11.59239,-10.67056 -1.73481,-1.38335 1.7989,2.29196 7.85269,8.16737 6.05377,5.8754 11.27035,10.67715 11.59238,10.67056 0.32203,-0.006 -3.21168,-3.68191 -7.85268,-8.16737 z M 134.46523,204.17203 c -0.99273,-1.09696 -2.19338,-3.34957 -2.6681,-5.00581 -0.73601,-2.56787 -0.97999,-2.73047 -1.65681,-1.10417 -0.5652,1.35811 0.0609,2.79921 2.17499,5.0058 3.24801,3.39018 5.06174,4.32171 2.14992,1.10418 z M 289.80612,77.31211 c 0,-0.156353 -4.39706,-4.663058 -9.77125,-10.0149 l -9.77125,-9.73062 -7.8808,8.090103 -7.88079,8.090102 6.96692,-5.979104 c 3.83181,-3.288508 7.99081,-5.979105 9.24224,-5.979105 1.40105,0 5.40547,3.024699 10.42166,7.871876 7.77152,7.50968 8.67327,8.305214 8.67327,7.651648 z"
   style="opacity:1;fill:#999999;fill-opacity:0.21176471;stroke-width:1.05385339" /><path
   id="path1153"
   d="M 85.885497,388.50196 C 82.368831,386.99796 2.291975,305.99747 1.0676073,302.70574 0.28021937,300.58885 0.26373258,298.65429 1.0137132,296.38182 2.5006837,291.87625 263.88026,30.57279 267.86261,29.610637 c 1.55211,-0.375 3.92328,-0.347796 5.26926,0.06045 2.44266,0.740882 28.20737,26.025121 104.73556,102.782373 36.72623,36.83616 40.5088,40.95104 40.5088,44.06766 0,1.89068 -0.52612,4.47346 -1.16917,5.73949 -1.20053,2.36364 -36.82976,38.53453 -143.70468,145.88941 l -61.11252,61.38696 -62.19833,-0.0668 c -34.20908,-0.0367 -63.146794,-0.47244 -64.306033,-0.96822 z m 130.149793,-37.42953 15.25253,-15.27978 -12.73563,-12.9108 c -26.41093,-26.77419 -83.58713,-84.03499 -94.93463,-95.07511 l -11.79904,-11.47943 -41.71334,41.51719 -41.713339,41.51719 33.482993,33.49525 33.482993,33.49527 h 52.712483 52.71247 z m 23.14183,-43.29625 c -2.58407,-2.65623 -7.06947,-6.7303 -9.96757,-9.05348 -2.89809,-2.3232 -1.00116,-0.15043 4.21542,4.82838 10.20626,9.74108 13.40146,12.08803 5.75215,4.2251 z M 133.36865,202.77044 c -0.90229,-1.2882 -1.64053,-3.21312 -1.64053,-4.2776 0,-1.06447 -0.47424,-1.64232 -1.05386,-1.2841 -1.54517,0.95496 -1.30905,2.02596 1.13035,5.12715 2.65144,3.37076 3.85483,3.70511 1.56404,0.43455 z M 287.69842,75.201949 c 0,-0.157701 -3.92375,-4.190098 -8.71945,-8.960882 l -8.71946,-8.674153 -7.3518,7.571299 -7.35182,7.571297 6.46622,-5.460462 c 3.55642,-3.003254 7.46452,-5.460462 8.68467,-5.460462 1.29233,0 5.1921,2.845015 9.34158,6.814999 6.82566,6.530393 7.65006,7.241459 7.65006,6.598364 z"
   style="opacity:1;fill:#999999;fill-opacity:0.21176471;stroke-width:1.05385339" /><path
   id="path1155"
   d="M 85.885497,388.50196 C 82.368831,386.99796 2.291975,305.99747 1.0676073,302.70574 0.28021937,300.58885 0.26373258,298.65429 1.0137132,296.38182 2.5006837,291.87625 263.88026,30.57279 267.86261,29.610637 c 1.55211,-0.375 3.92328,-0.347796 5.26926,0.06045 2.44266,0.740882 28.20737,26.025121 104.73556,102.782373 36.72623,36.83616 40.5088,40.95104 40.5088,44.06766 0,1.89068 -0.52617,4.47346 -1.16926,5.73949 -1.20698,2.37616 -36.76894,38.4808 -143.17759,145.36249 l -61.63986,61.91388 -62.19815,-0.0668 c -34.20899,-0.0367 -63.146634,-0.47244 -64.305873,-0.96822 z M 216.03814,351.06958 231.2935,335.78696 211.23704,315.50203 C 174.9897,278.84176 144.10719,247.94774 127.80487,232.03875 l -16.04256,-15.65549 -41.685235,41.48921 -41.685234,41.48922 33.482993,33.49525 33.482993,33.49527 h 52.712483 52.71247 z m 27.39843,-38.79366 c 0,-0.18136 -1.54126,-1.72262 -3.42502,-3.42502 l -3.42502,-3.09526 3.09526,3.42502 c 2.88522,3.19261 3.75478,3.90943 3.75478,3.09526 z m -9.56444,-9.77861 c -1.40518,-1.50226 -3.50334,-3.18705 -4.66258,-3.74396 -1.15924,-0.5569 -0.21077,0.66517 2.10771,2.71573 4.97025,4.39587 6.14837,4.87002 2.55487,1.02823 z M 133.36865,202.77044 c -0.90229,-1.2882 -1.64053,-3.21312 -1.64053,-4.2776 0,-1.06447 -0.47424,-1.64232 -1.05386,-1.2841 -1.54517,0.95496 -1.30905,2.02596 1.13035,5.12715 2.65144,3.37076 3.85483,3.70511 1.56404,0.43455 z M 287.69842,75.201949 c 0,-0.157701 -3.92425,-4.190591 -8.72056,-8.961976 l -8.72054,-8.675247 -6.82379,7.033518 -6.82379,7.033518 5.90981,-4.921588 c 3.2504,-2.706873 6.92138,-4.921588 8.15775,-4.921588 1.3286,0 5.16107,2.787127 9.37106,6.814999 6.82566,6.530393 7.65006,7.241459 7.65006,6.598364 z"
   style="opacity:1;fill:#999999;fill-opacity:0.21176471;stroke-width:1.05385339" /><path
   id="path1157"
   d="M 85.885497,388.50196 C 82.368831,386.99796 2.291975,305.99747 1.0676073,302.70574 0.27916868,300.58602 0.26348113,298.65756 1.0161698,296.38262 2.5684373,291.69103 263.8989,30.565701 268.04486,29.563532 c 1.83506,-0.44357 4.18653,-0.158676 6.04195,0.732016 2.8315,1.359249 35.34632,33.402104 112.41036,110.778652 29.58608,29.70606 31.87637,32.2696 31.84171,35.64061 -0.0206,1.99775 -0.62259,4.68545 -1.33791,5.97266 -1.36079,2.44876 -38.24003,39.84636 -142.40705,144.4087 l -62.20474,62.44081 -62.19799,-0.0668 c -34.2089,-0.0367 -63.146454,-0.47244 -64.305693,-0.96822 z M 216.03871,351.069 231.29464,335.7858 208.12782,312.33989 C 195.38606,299.44465 175.71043,279.72637 164.40421,268.5215 153.09798,257.31664 136.64209,240.98798 127.83555,232.2356 l -16.01188,-15.91341 -41.715916,41.51974 -41.715913,41.51976 33.482993,33.49525 33.482993,33.49527 h 52.712483 52.71247 z m 26.34401,-39.8604 c 0,-0.18876 -1.30414,-1.49291 -2.8981,-2.89809 l -2.89809,-2.55487 2.55486,2.8981 c 2.38792,2.7087 3.24133,3.38138 3.24133,2.55486 z m -8.43083,-8.61452 c -1.36131,-1.44905 -2.89312,-2.63463 -3.40403,-2.63463 -0.87733,0 4.48119,5.16515 5.43197,5.23596 0.24595,0.0183 -0.66662,-1.15228 -2.02794,-2.60133 z M 132.91215,201.45848 c -1.60377,-3.42524 -3.29174,-4.86673 -3.29174,-2.81108 0,0.88317 4.04549,6.46524 4.68555,6.46524 0.17444,0 -0.45277,-1.64438 -1.39381,-3.65416 z M 278.21373,65.477073 c -4.31813,-4.347145 -7.87672,-7.9039 -7.90796,-7.9039 -0.0313,0 -3.12565,3.163183 -6.87643,7.029294 l -6.8196,7.029295 5.90981,-4.921588 c 3.2504,-2.706873 6.9036,-4.921588 8.11823,-4.921588 1.22711,0 4.92285,2.558456 8.3172,5.757767 8.82972,8.322343 8.40598,7.139403 -0.74125,-2.06928 z"
   style="opacity:1;fill:#999999;fill-opacity:0.21176471;stroke-width:1.05385339" /><path
   id="path1159"
   d="M 85.885497,388.50196 C 82.368831,386.99796 2.291975,305.99747 1.0676073,302.70574 0.27916868,300.58602 0.26348113,298.65756 1.0161698,296.38262 2.5684373,291.69103 263.8989,30.565701 268.04486,29.563532 c 1.83506,-0.44357 4.18653,-0.158676 6.04195,0.732016 2.8315,1.359249 35.34632,33.402104 112.41036,110.778652 29.58608,29.70606 31.87637,32.2696 31.84171,35.64061 -0.0206,1.99775 -0.62582,4.69149 -1.34508,5.98606 -1.41489,2.54663 -34.64328,36.25277 -138.19301,140.17989 l -66.41417,66.65622 -62.19671,-0.0668 c -34.20818,-0.0367 -63.145174,-0.47244 -64.304413,-0.96822 z m 130.113823,-37.3935 c 8.36911,-8.38406 14.85716,-15.60313 14.41792,-16.04239 -0.43926,-0.43924 -12.65544,-12.78178 -27.14709,-27.42787 -14.49164,-14.64607 -41.0081,-41.16079 -58.92546,-58.92158 l -32.57701,-32.29237 -41.69288,41.46376 -41.692879,41.46375 33.487952,33.50023 33.487954,33.50022 h 52.712483 52.71247 z m 20.06028,-46.24334 c 0,-0.19998 -1.06703,-1.267 -2.37117,-2.37117 l -2.37117,-2.00758 2.00758,2.37117 c 1.88663,2.22831 2.73476,2.85093 2.73476,2.00758 z M 132.91215,201.45848 c -1.60377,-3.42524 -3.29174,-4.86673 -3.29174,-2.81108 0,0.88317 4.04549,6.46524 4.68555,6.46524 0.17444,0 -0.45277,-1.64438 -1.39381,-3.65416 z m 144.7758,-136.507188 -7.31931,-7.375827 -6.08906,6.025521 c -3.34899,3.314037 -6.08906,6.203085 -6.08906,6.420108 0,0.217022 2.31843,-1.546511 5.15206,-3.918962 2.83363,-2.37245 6.12019,-4.313546 7.30347,-4.313546 1.18327,0 4.67421,2.353091 7.75764,5.229092 8.14998,7.601702 7.75945,6.474256 -0.71574,-2.066386 z"
   style="opacity:1;fill:#ffffff;fill-opacity:0.21176471;stroke-width:1.05385339" /><path
   id="path1161"
   d="m 62.431541,332.35982 -32.92609,-32.93854 41.012485,-41.00238 41.012484,-41.00237 5.09305,4.31856 c 4.85686,4.1183 104.02023,103.44983 110.46966,110.65702 l 3.08879,3.4517 -14.69908,14.72727 -14.69909,14.72727 H 148.07069 95.35763 Z"
   style="opacity:1;fill:#ffffff;fill-opacity:0.21176471;stroke-width:1.05385339" /><path
   id="path1163"
   d="m 62.431541,332.35982 -32.92609,-32.93854 41.004937,-40.99483 41.004932,-40.99483 4.04674,3.25269 c 3.80119,3.05532 104.82027,104.24343 111.5212,111.7078 l 3.09866,3.4517 -14.69908,14.72727 -14.69909,14.72727 H 148.07069 95.35763 Z"
   style="opacity:1;fill:#ffffff;fill-opacity:0.21176471;stroke-width:1.05385339" /><path
   id="path1165"
   d="m 62.431541,332.35982 -32.92609,-32.93854 41.017134,-41.00702 41.017135,-41.00703 6.14225,5.37691 c 5.58239,4.88681 89.46823,88.91452 105.72221,105.90102 l 6.81461,7.12172 -14.71752,14.74574 -14.71752,14.74573 H 148.07069 95.35763 Z"
   style="opacity:1;fill:#ffffff;fill-opacity:0.21176471;stroke-width:1.05385339" /><path
   id="path1167"
   d="m 62.431541,332.35982 -32.92609,-32.93854 41.025586,-41.01548 41.025583,-41.01547 10.34921,9.60023 c 9.2576,8.5876 60.1083,59.53958 95.17458,95.36412 l 13.15307,13.43748 -14.72486,14.7531 -14.72487,14.75309 H 148.07069 95.35763 Z"
   style="opacity:1;fill:#ffffff;fill-opacity:0.21176471;stroke-width:1.05385339" /><path
   id="path1169"
   d="m 62.431541,332.35982 -32.92609,-32.93854 41.029422,-41.01931 41.029417,-41.0193 15.61465,14.86411 c 13.84752,13.18193 42.1417,41.54816 88.30116,88.52602 l 14.75556,15.01717 -14.72596,14.75419 -14.72595,14.75419 H 148.07069 95.35763 Z"
   style="opacity:1;fill:#ffffff;fill-opacity:0.21176471;stroke-width:1.05385339" /><path
   id="path1171"
   d="m 62.431541,332.35982 -32.92609,-32.93854 41.045729,-41.03561 41.04573,-41.03561 9.38546,8.8987 c 9.24998,8.77024 56.33394,55.86971 91.33124,91.36131 l 17.92439,18.17757 -14.72713,14.75535 -14.72712,14.75536 H 148.07069 95.35763 Z"
   style="opacity:1;fill:#ffffff;fill-opacity:0.21176471;stroke-width:1.05385339" /><path
   id="path1173"
   d="m 62.431541,332.35982 -32.92609,-32.93854 41.011879,-41.00177 41.01188,-41.00177 18.27586,17.50652 c 10.05172,9.62859 36.72434,36.29874 59.27249,59.26701 l 40.99664,41.76047 -14.64523,14.67331 -14.64522,14.6733 H 148.07069 95.35763 Z"
   style="opacity:1;fill:#ffffff;fill-opacity:0.21176471;stroke-width:1.05385339" /><path
   id="path1175"
   d="m 62.431541,332.35982 -32.92609,-32.93854 41.011879,-41.00177 41.01188,-41.00177 18.27586,17.50652 c 10.05172,9.62859 36.72434,36.29874 59.27249,59.26701 l 40.99664,41.76047 -14.64523,14.67331 -14.64522,14.6733 H 148.07069 95.35763 Z"
   style="opacity:1;fill:#ffffff;fill-opacity:0.21176471;stroke-width:1.05385339" /><path
   id="path1177"
   d="m 62.431541,332.35982 -32.92609,-32.93854 41.009558,-40.99945 41.009561,-40.99945 18.50736,17.74905 c 10.17904,9.76197 36.85224,36.43155 59.27376,59.26572 l 40.76641,41.51669 -14.64418,14.67226 -14.64417,14.67225 H 148.07069 95.35763 Z"
   style="opacity:1;fill:#ffffff;fill-opacity:0.21176471;stroke-width:1.05385339" /><path
   id="path1179"
   d="m 62.431541,332.35982 -32.92609,-32.93854 41.010995,-41.00089 41.010994,-41.00088 18.84563,18.08223 c 10.36509,9.94522 37.0378,36.6153 59.27267,59.26683 l 40.42704,41.18459 -14.64452,14.67259 -14.64451,14.6726 H 148.07069 95.35763 Z"
   style="opacity:1;fill:#ffffff;fill-opacity:0.21176471;stroke-width:1.05385339" /><path
   id="path1181"
   d="m 62.431541,332.35982 -32.92609,-32.93854 41.010995,-41.00089 41.010994,-41.00088 18.84563,18.08223 c 10.36509,9.94522 37.0378,36.6153 59.27267,59.26683 l 40.42704,41.18459 -14.64452,14.67259 -14.64451,14.6726 H 148.07069 95.35763 Z"
   style="opacity:1;fill:#ffffff;fill-opacity:0.21176471;stroke-width:1.05385339" /><path
   id="path1183"
   d="m 62.431541,332.35982 -32.92609,-32.93854 41.012813,-41.0027 41.012816,-41.00271 19.40371,18.62872 c 10.67204,10.2458 37.34468,36.91594 59.27253,59.26698 l 39.8688,40.63825 -14.64618,14.67427 -14.64619,14.67426 H 148.07069 95.35763 Z"
   style="opacity:1;fill:#ffffff;fill-opacity:0.21176471;stroke-width:1.05385339" /><path
   id="path1185"
   d="m 62.431541,332.35982 -32.92609,-32.93854 41.014026,-41.00392 41.014023,-41.00391 18.83109,18.0513 c 10.3571,9.92822 37.02959,36.59849 59.27222,59.26727 l 40.44114,41.21596 -14.6471,14.67519 -14.6471,14.67518 H 148.07069 95.35763 Z"
   style="opacity:1;fill:#ffffff;fill-opacity:0.21176471;stroke-width:1.05385339" /><path
   id="path1187"
   d="m 62.431541,332.35982 -32.92609,-32.93854 41.015531,-41.00542 41.015528,-41.00542 18.41259,17.62202 c 10.12692,9.69211 36.8,36.36179 59.27352,59.26596 l 40.86093,41.64395 -14.6499,14.67799 -14.6499,14.67799 H 148.07069 95.35763 Z"
   style="opacity:1;fill:#ffffff;fill-opacity:0.21176471;stroke-width:1.05385339" /><path
   id="path1189"
   d="m 62.431541,332.35982 -32.92609,-32.93854 41.023851,-41.01374 41.023848,-41.01374 18.81301,18.01462 c 10.34715,9.90804 37.01898,36.57897 59.27073,59.26874 l 40.45771,41.25414 -14.65542,14.68352 -14.65543,14.68353 H 148.07069 95.35763 Z"
   style="opacity:1;fill:#ffffff;fill-opacity:0.21176471;stroke-width:1.05385339" /></svg>