<?xml version="1.0" encoding="UTF-8" standalone="no"?>
<svg
   xmlns:dc="http://purl.org/dc/elements/1.1/"
   xmlns:cc="http://creativecommons.org/ns#"
   xmlns:rdf="http://www.w3.org/1999/02/22-rdf-syntax-ns#"
   xmlns:svg="http://www.w3.org/2000/svg"
   xmlns="http://www.w3.org/2000/svg"
   xml:space="preserve"
   style="enable-background:new 0 0 512 512;"
   viewBox="0 0 512 512"
   y="0px"
   x="0px"
   id="Capa_1"
   version="1.1"><metadata
   id="metadata1050"><rdf:RDF><cc:Work
       rdf:about=""><dc:format>image/svg+xml</dc:format><dc:type
         rdf:resource="http://purl.org/dc/dcmitype/StillImage" /><dc:title></dc:title></cc:Work></rdf:RDF></metadata><defs
   id="defs1048" />
<g
   id="g1001">
	<g
   id="g999">
		<polygon
   id="polygon997"
   points="51.2,353.28 0,512 158.72,460.8   " />
	</g>
</g>
<g
   id="g1007">
	<g
   id="g1005">
		
			<rect
   style="fill:#0059ff;fill-opacity:1"
   id="rect1003"
   height="153.599"
   width="353.277"
   transform="matrix(0.7071 -0.7071 0.7071 0.7071 -95.8575 260.3719)"
   y="169.097"
   x="89.73" />
	</g>
</g>
<g
   id="g1013">
	<g
   id="g1011">
		<path
   id="path1009"
   d="M504.32,79.36L432.64,7.68c-10.24-10.24-25.6-10.24-35.84,0l-23.04,23.04l107.52,107.52l23.04-23.04    C514.56,104.96,514.56,89.6,504.32,79.36z" />
	</g>
</g>
<g
   id="g1015">
</g>
<g
   id="g1017">
</g>
<g
   id="g1019">
</g>
<g
   id="g1021">
</g>
<g
   id="g1023">
</g>
<g
   id="g1025">
</g>
<g
   id="g1027">
</g>
<g
   id="g1029">
</g>
<g
   id="g1031">
</g>
<g
   id="g1033">
</g>
<g
   id="g1035">
</g>
<g
   id="g1037">
</g>
<g
   id="g1039">
</g>
<g
   id="g1041">
</g>
<g
   id="g1043">
</g>
<path
   id="path1052"
   d="M 427.46892,83.918763 374.37429,30.818309 388.33504,17.038645 C 401.30349,4.2384258 402.67629,3.148369 407.64881,1.7028182 c 6.39427,-1.85886591 12.31589,-1.38573389 17.9686,1.4356764 2.63985,1.3176185 16.70574,14.7469404 42.75384,40.8189854 42.40639,42.445375 42.7908,42.919504 42.83823,52.836512 0.0431,9.018438 -2.13139,12.550908 -16.7703,27.243018 -7.11435,7.14021 -13.14678,12.98221 -13.4054,12.98221 -0.25863,0 -24.36281,-23.89521 -53.56486,-53.100457 z"
   style="opacity:1;fill:#0059ff;fill-opacity:1;stroke-width:0.27330962;stroke-miterlimit:4;stroke-dasharray:none" /><path
   id="path1054"
   d="m 1.1125624,510.27798 c 0.2026033,-0.6062 11.6166546,-36.05007 25.3645586,-78.76415 l 24.996189,-77.66197 53.0463,53.03987 c 29.17546,29.17193 52.74841,53.32223 52.38434,53.66735 -0.36408,0.34511 -32.02423,10.72617 -70.355907,23.06902 -38.331673,12.34287 -73.318678,23.63642 -77.7489003,25.0968 -5.0180125,1.65415 -7.91606441,2.2397 -7.6865803,1.55308 z"
   style="opacity:1;fill:#0059ff;fill-opacity:1;stroke-width:0.27330962;stroke-miterlimit:4;stroke-dasharray:none" /></svg>