<?xml version="1.0" encoding="UTF-8" standalone="no"?>
<svg
   xmlns:dc="http://purl.org/dc/elements/1.1/"
   xmlns:cc="http://creativecommons.org/ns#"
   xmlns:rdf="http://www.w3.org/1999/02/22-rdf-syntax-ns#"
   xmlns:svg="http://www.w3.org/2000/svg"
   xmlns="http://www.w3.org/2000/svg"
   xml:space="preserve"
   style="enable-background:new 0 0 225.455 225.455;"
   viewBox="0 0 225.455 225.455"
   y="0px"
   x="0px"
   id="Capa_1"
   version="1.1"><metadata
   id="metadata997"><rdf:RDF><cc:Work
       rdf:about=""><dc:format>image/svg+xml</dc:format><dc:type
         rdf:resource="http://purl.org/dc/dcmitype/StillImage" /><dc:title></dc:title></cc:Work></rdf:RDF></metadata><defs
   id="defs995" />
<path
   style="fill:#333333;stroke-width:0.75590551;stroke-miterlimit:4;stroke-dasharray:none"
   id="path960"
   d="M222.18,67.311c-3.424-2.334-8.088-1.452-10.422,1.97L196.461,91.71c-3.974-18.515-13.179-35.528-26.876-49.224  c-18.768-18.768-43.721-29.104-70.264-29.104c-26.542,0-51.496,10.336-70.264,29.104c-38.744,38.744-38.744,101.785,0,140.528  c19.372,19.372,44.818,29.058,70.264,29.058s50.892-9.686,70.264-29.058c2.929-2.929,2.929-7.678,0-10.607  c-2.929-2.929-7.678-2.929-10.606,0c-32.896,32.895-86.419,32.895-119.314,0c-32.895-32.895-32.895-86.42,0-119.315  C55.6,37.158,76.786,28.382,99.322,28.382c22.536,0,43.723,8.776,59.657,24.711c12.299,12.298,20.315,27.751,23.34,44.527  l-26.623-18.158c-3.422-2.334-8.088-1.452-10.422,1.97c-2.334,3.422-1.452,8.088,1.97,10.422l39.714,27.087  c0.002,0.001,0.004,0.003,0.006,0.005c0.628,0.428,1.298,0.743,1.987,0.958c0.021,0.007,0.041,0.018,0.062,0.024  c0.117,0.036,0.236,0.05,0.354,0.08c0.6,0.15,1.208,0.242,1.816,0.242c2.396,0,4.751-1.146,6.203-3.274l26.764-39.242  C226.484,74.311,225.602,69.645,222.18,67.311z" />
<g
   id="g962">
</g>
<g
   id="g964">
</g>
<g
   id="g966">
</g>
<g
   id="g968">
</g>
<g
   id="g970">
</g>
<g
   id="g972">
</g>
<g
   id="g974">
</g>
<g
   id="g976">
</g>
<g
   id="g978">
</g>
<g
   id="g980">
</g>
<g
   id="g982">
</g>
<g
   id="g984">
</g>
<g
   id="g986">
</g>
<g
   id="g988">
</g>
<g
   id="g990">
</g>
</svg>